<svg width="593" height="380" viewBox="0 0 593 380" fill="none" xmlns="http://www.w3.org/2000/svg">
<g filter="url(#filter0_d_19_5)">
<path d="M279.186 90.0376C308.844 105.835 332.261 135.809 334.735 166.27C337.43 196.958 319.182 228.133 298.306 261.984C277.43 295.835 253.669 332.547 219.216 342.239C184.764 351.93 139.618 334.601 101.738 313.749C63.8742 292.692 33.2754 268.112 21.5466 239.138C9.59666 209.938 16.4821 176.754 22.7085 139.993C29.1735 103.251 34.9623 63.1372 60.4727 51.2305C85.9831 39.3238 131.471 55.4393 172.302 64.1119C213.115 72.9902 249.272 74.4256 279.186 90.0376Z" fill="#290B59"/>
</g>
<g filter="url(#filter1_d_19_5)">
<path d="M466.926 35.3137C511.525 55.3053 548.015 90.6751 556.124 129.56C564.522 168.225 543.96 210.405 509.787 238.086C475.614 265.766 427.54 278.948 380.914 289.932C333.998 300.916 288.241 309.265 249.145 300.038C210.338 290.811 177.902 264.009 145.467 232.154C112.742 200.08 79.7271 162.952 89.8632 133.734C99.9993 104.296 152.707 82.7663 197.885 62.9944C242.773 43.2225 280.132 24.9884 325.021 18.178C369.619 11.148 422.327 15.3221 466.926 35.3137Z" fill="#7520FF"/>
</g>
<path d="M63 143.418L63.4457 199.913L97.5412 193.739L97.5377 182.02L76.3348 185.86L75.9703 141.069L63 143.418Z" fill="white"/>
<path d="M121.347 190.236C125.904 189.411 129.65 187.79 132.586 185.372C135.575 182.945 137.694 179.841 138.944 176.058L128.387 175.303C127.612 176.952 126.574 178.325 125.273 179.423C123.972 180.52 122.338 181.247 120.37 181.604C118.713 181.904 117.246 181.765 115.967 181.189C114.74 180.603 113.763 179.621 113.037 178.244C112.362 176.857 111.987 175.201 111.911 173.275C111.854 171.454 111.933 169.796 112.147 168.302C112.405 166.747 112.833 165.403 113.433 164.271C114.085 163.129 114.908 162.199 115.903 161.48C116.939 160.699 118.157 160.182 119.555 159.929C120.901 159.685 122.039 159.776 122.97 160.2C123.953 160.615 124.744 161.306 125.344 162.275C125.996 163.235 126.457 164.472 126.727 165.985C126.811 166.455 126.805 167.022 126.709 167.686C126.604 168.297 126.443 168.892 126.225 169.471L128.302 165.377L105.313 169.54L106.485 176.117L138.794 170.266C138.923 169.488 138.976 168.59 138.955 167.57C138.933 166.55 138.848 165.622 138.7 164.787C138.104 161.447 136.95 158.719 135.237 156.604C133.567 154.428 131.377 152.939 128.669 152.136C126.003 151.272 122.857 151.168 119.233 151.824C115.919 152.425 112.988 153.521 110.439 155.114C107.89 156.707 105.778 158.652 104.103 160.949C102.47 163.185 101.338 165.68 100.706 168.434C100.075 171.189 100.024 174.054 100.554 177.029C101.159 180.422 102.404 183.214 104.291 185.404C106.23 187.586 108.641 189.116 111.523 189.995C114.448 190.812 117.723 190.893 121.347 190.236Z" fill="white"/>
<path d="M147.6 171.258L143.22 179.971C144.988 180.891 146.875 181.734 148.882 182.502C150.881 183.218 152.992 183.671 155.218 183.861C157.452 184.102 159.786 184.003 162.22 183.562C164.851 183.032 167.118 182.11 169.022 180.795C170.935 179.533 172.36 177.928 173.295 175.98C174.273 173.971 174.617 171.7 174.326 169.166C174.109 167.05 173.466 165.388 172.396 164.181C171.377 162.965 170.085 162.013 168.52 161.327C167.006 160.631 165.334 160.099 163.505 159.73C162.23 159.475 160.986 159.243 159.773 159.031C158.55 158.768 157.555 158.436 156.789 158.036C156.075 157.627 155.695 156.995 155.65 156.141C155.562 155.349 155.818 154.683 156.416 154.143C157.058 153.542 157.922 153.143 159.009 152.946C160.666 152.646 162.381 152.821 164.153 153.47C165.978 154.109 167.658 154.99 169.194 156.113L172.656 147.646C170.428 146.541 168.004 145.687 165.385 145.084C162.817 144.471 160.058 144.432 157.106 144.966C154.776 145.388 152.645 146.178 150.714 147.336C148.782 148.494 147.278 149.952 146.202 151.709C145.177 153.458 144.796 155.52 145.059 157.897C145.215 159.97 145.811 161.667 146.848 162.988C147.928 164.248 149.225 165.225 150.738 165.921C152.304 166.607 153.914 167.097 155.57 167.39C156.948 167.625 158.171 167.889 159.238 168.18C160.296 168.42 161.161 168.775 161.833 169.246C162.505 169.717 162.864 170.38 162.909 171.233C163.067 172.121 162.84 172.943 162.226 173.701C161.604 174.406 160.749 174.857 159.661 175.054C158.532 175.313 157.334 175.341 156.069 175.139C154.794 174.885 153.456 174.427 152.056 173.765C150.646 173.05 149.161 172.214 147.6 171.258Z" fill="white"/>
<path d="M203.77 117.927L204.294 174.408L217.109 172.087L216.74 115.578L203.77 117.927ZM211.909 127.607L222.549 125.68C224.102 125.399 225.474 125.447 226.663 125.824C227.853 126.201 228.8 126.865 229.504 127.815C230.207 128.765 230.534 129.999 230.484 131.517C230.495 133.078 230.127 134.464 229.381 135.677C228.687 136.88 227.692 137.896 226.396 138.723C225.091 139.498 223.636 140.031 222.031 140.322L212.012 142.136L212.01 153.371L222.883 151.402C227.129 150.633 230.783 149.244 233.846 147.234C236.96 145.216 239.316 142.688 240.912 139.651C242.5 136.561 243.171 133.126 242.924 129.345C242.669 125.512 241.631 122.386 239.811 119.968C238.042 117.54 235.608 115.88 232.509 114.986C229.462 114.083 225.889 113.976 221.789 114.664L211.77 116.478L211.909 127.607Z" fill="white"/>
<path d="M259.62 127.211L248.203 129.278L248.485 166.406L259.901 164.338L259.62 127.211ZM270.17 137.828L274.781 126.809C273.889 126.001 272.873 125.404 271.736 125.017C270.65 124.621 269.459 124.54 268.165 124.775C266.094 125.15 264.23 126.241 262.575 128.05C260.962 129.797 259.661 131.945 258.673 134.495C257.726 136.983 257.243 139.522 257.224 142.112L259.75 145.938C259.706 144.491 259.913 143.107 260.372 141.784C260.822 140.41 261.5 139.263 262.405 138.345C263.301 137.374 264.401 136.798 265.705 136.616C266.585 136.457 267.373 136.529 268.069 136.834C268.807 137.078 269.507 137.409 270.17 137.828Z" fill="white"/>
<path d="M276.924 142.586C277.152 146.262 278.22 149.409 280.13 152.027C282.03 154.593 284.501 156.462 287.543 157.636C290.627 158.747 294.007 158.97 297.684 158.305C301.515 157.611 304.892 156.164 307.814 153.965C310.736 151.765 313.007 149.064 314.628 145.861C316.248 142.658 316.966 139.187 316.781 135.449C316.605 131.763 315.567 128.637 313.667 126.072C311.757 123.454 309.261 121.589 306.176 120.478C303.134 119.304 299.75 119.055 296.022 119.73C292.294 120.405 288.943 121.847 285.969 124.056C283.047 126.255 280.776 128.957 279.155 132.16C277.535 135.363 276.791 138.838 276.924 142.586ZM288.821 140.512C288.782 138.795 289.108 137.173 289.798 135.648C290.479 134.069 291.444 132.736 292.693 131.648C293.943 130.56 295.348 129.901 296.911 129.672C298.474 129.443 299.852 129.678 301.045 130.378C302.23 131.026 303.15 131.99 303.806 133.273C304.505 134.493 304.89 135.905 304.962 137.509C305 139.226 304.653 140.878 303.921 142.466C303.231 143.991 302.261 145.299 301.012 146.387C299.805 147.414 298.395 148.046 296.78 148.285C295.227 148.566 293.858 148.383 292.674 147.735C291.541 147.078 290.621 146.113 289.913 144.841C289.205 143.568 288.841 142.125 288.821 140.512Z" fill="white"/>
<path d="M348.816 85.1958L349.368 148.137L360.94 146.042L360.544 83.0721L348.816 85.1958ZM320.904 134.622C321.104 138.142 321.951 141.248 323.446 143.941C324.984 146.572 326.994 148.552 329.475 149.881C331.999 151.148 334.841 151.495 337.999 150.923C340.381 150.492 342.498 149.624 344.35 148.319C346.244 146.952 347.814 145.267 349.061 143.263C350.307 141.259 351.222 139.046 351.806 136.623C352.433 134.139 352.673 131.59 352.528 128.976C352.402 126.466 351.957 124.122 351.195 121.943C350.484 119.755 349.453 117.867 348.101 116.28C346.801 114.684 345.209 113.544 343.323 112.862C341.48 112.118 339.368 111.962 336.986 112.393C333.776 112.974 330.917 114.327 328.409 116.452C325.954 118.567 324.049 121.228 322.697 124.437C321.335 127.593 320.738 130.988 320.904 134.622ZM333.034 132.506C332.995 130.789 333.342 129.136 334.075 127.549C334.798 125.909 335.81 124.541 337.111 123.443C338.464 122.336 339.947 121.663 341.562 121.425C342.659 121.28 343.642 121.398 344.511 121.78C345.424 122.099 346.218 122.656 346.893 123.45C347.612 124.182 348.172 125.077 348.575 126.136C348.968 127.142 349.194 128.26 349.252 129.488C349.268 130.779 349.068 132.054 348.651 133.315C348.235 134.576 347.639 135.734 346.865 136.79C346.134 137.785 345.266 138.616 344.263 139.282C343.259 139.949 342.183 140.359 341.035 140.513C339.481 140.795 338.087 140.616 336.851 139.978C335.657 139.278 334.727 138.261 334.062 136.927C333.449 135.583 333.106 134.109 333.034 132.506Z" fill="white"/>
<path d="M381.392 127.79L381.369 105.164L369.331 107.344L369.499 131.237C369.602 133.913 370.124 136.243 371.065 138.227C371.998 140.16 373.399 141.577 375.27 142.477C377.183 143.316 379.564 143.478 382.412 142.962C384.897 142.512 386.953 141.601 388.579 140.229C390.196 138.804 391.467 137.092 392.394 135.093L392.446 140.337L404.096 138.227L403.814 101.1L392.242 103.195L392.307 126.056C392.332 127.399 392.092 128.601 391.587 129.662C391.081 130.723 390.383 131.604 389.492 132.304C388.601 133.004 387.508 133.472 386.214 133.706C385.023 133.922 384.087 133.768 383.406 133.245C382.716 132.669 382.23 131.895 381.95 130.922C381.67 129.949 381.484 128.905 381.392 127.79Z" fill="white"/>
<path d="M411.547 85.7171C411.882 87.5962 412.83 89.0141 414.39 89.9709C415.95 90.9277 417.662 91.2373 419.526 90.8997C421.442 90.5528 422.94 89.6619 424.02 88.227C425.153 86.7826 425.551 85.1209 425.217 83.2418C424.882 81.3627 423.939 79.9709 422.388 79.0663C420.88 78.1002 419.168 77.7906 417.252 78.1375C415.388 78.475 413.89 79.366 412.757 80.8103C411.616 82.2024 411.212 83.838 411.547 85.7171ZM412.873 99.4592L413.233 136.572L424.495 134.533L424.135 97.4199L412.873 99.4592Z" fill="white"/>
<path d="M429.228 96.4976L429.263 106.594L452.641 102.361L452.606 92.2643L429.228 96.4976ZM435.151 82.4935L435.568 132.528L446.674 130.517L446.413 80.4542L435.151 82.4935Z" fill="white"/>
<path d="M459.707 114.74L455.327 123.454C457.094 124.373 458.981 125.217 460.989 125.985C462.987 126.701 465.099 127.153 467.324 127.343C469.558 127.585 471.892 127.486 474.326 127.045C476.957 126.515 479.225 125.592 481.129 124.278C483.041 123.015 484.466 121.41 485.402 119.463C486.38 117.454 486.723 115.182 486.432 112.649C486.216 110.533 485.572 108.871 484.502 107.664C483.483 106.447 482.191 105.496 480.626 104.81C479.112 104.114 477.441 103.581 475.611 103.212C474.337 102.958 473.093 102.725 471.879 102.514C470.656 102.251 469.662 101.919 468.896 101.519C468.181 101.109 467.802 100.478 467.756 99.6236C467.669 98.8313 467.924 98.1654 468.523 97.6259C469.164 97.0249 470.028 96.6259 471.116 96.429C472.772 96.129 474.487 96.3034 476.26 96.9523C478.084 97.5918 479.764 98.473 481.3 99.5957L484.762 91.129C482.535 90.0238 480.111 89.1695 477.491 88.5662C474.923 87.9536 472.164 87.9145 469.213 88.4489C466.883 88.8708 464.752 89.6608 462.82 90.8188C460.889 91.9768 459.385 93.4346 458.308 95.1921C457.283 96.9402 456.903 99.0028 457.166 101.38C457.321 103.453 457.918 105.15 458.955 106.471C460.034 107.73 461.331 108.708 462.845 109.404C464.41 110.09 466.02 110.58 467.676 110.872C469.054 111.108 470.277 111.371 471.345 111.663C472.403 111.902 473.268 112.258 473.94 112.729C474.611 113.2 474.97 113.862 475.015 114.716C475.173 115.603 474.946 116.426 474.333 117.184C473.71 117.889 472.855 118.34 471.768 118.537C470.638 118.796 469.44 118.824 468.175 118.622C466.9 118.368 465.563 117.91 464.162 117.247C462.752 116.533 461.267 115.697 459.707 114.74Z" fill="white"/>
<path d="M85.1627 255.619C85.1598 253.986 85.4262 252.449 85.9617 251.009C86.491 249.534 87.2466 248.218 88.2286 247.06C89.2042 245.867 90.3427 244.88 91.644 244.1C92.9453 243.32 94.3633 242.791 95.8981 242.513C98.1305 242.109 100.113 242.222 101.846 242.852C103.572 243.446 105.104 244.367 106.442 245.613L106.197 235.748C104.519 234.817 102.766 234.173 100.937 233.814C99.1441 233.449 97.0994 233.493 94.8035 233.945C91.9083 234.469 89.2753 235.454 86.9043 236.9C84.5272 238.31 82.4805 240.06 80.7644 242.15C79.0483 244.239 77.7373 246.582 76.8316 249.178C75.9608 251.768 75.5636 254.49 75.64 257.343C75.7325 260.085 76.3026 262.577 77.3503 264.82C78.3917 267.027 79.7872 268.898 81.5369 270.432C83.3153 271.925 85.4084 272.962 87.8162 273.542C90.259 274.116 92.8756 274.15 95.6662 273.645C98.073 273.209 100.141 272.49 101.871 271.487C103.594 270.449 105.176 269.219 106.614 267.797L106.326 257.994C105.045 259.496 103.534 260.913 101.791 262.245C100.082 263.571 98.0043 264.437 95.5563 264.844C94.0564 265.116 92.6808 265.075 91.4294 264.72C90.1781 264.366 89.081 263.766 88.1381 262.921C87.1953 262.075 86.4684 261.027 85.9575 259.776C85.4467 258.526 85.1817 257.14 85.1627 255.619Z" fill="white"/>
<path d="M120.19 225.863L112.342 227.284L112.661 269.696L120.51 268.275L120.19 225.863ZM127.767 251.715L127.835 266.949L135.631 265.537L135.513 249.115C135.438 247.277 135.104 245.704 134.51 244.396C133.911 243.053 133.002 242.092 131.782 241.514C130.592 240.895 129.037 240.759 127.119 241.106C125.131 241.466 123.527 242.265 122.307 243.502C121.122 244.733 120.269 246.213 119.749 247.94C119.222 249.633 118.962 251.404 118.967 253.254L120.39 253.051C120.42 252.211 120.602 251.416 120.937 250.665C121.265 249.88 121.723 249.216 122.31 248.674C122.933 248.126 123.669 247.811 124.518 247.73C125.368 247.649 126.022 247.784 126.481 248.137C126.934 248.454 127.255 248.941 127.443 249.596C127.626 250.216 127.734 250.923 127.767 251.715Z" fill="white"/>
<path d="M159.027 236.254L159.269 261.256L167.013 259.854L166.823 234.842L159.027 236.254ZM139.989 252.17C140.123 254.542 140.694 256.634 141.701 258.448C142.737 260.221 144.091 261.555 145.763 262.45C147.464 263.304 149.378 263.538 151.505 263.152C153.11 262.862 154.536 262.277 155.784 261.398C157.06 260.477 158.118 259.341 158.957 257.992C159.797 256.642 160.414 255.151 160.807 253.519C161.229 251.845 161.391 250.128 161.293 248.367C161.208 246.676 160.909 245.097 160.395 243.629C159.916 242.155 159.222 240.883 158.311 239.814C157.435 238.738 156.362 237.971 155.092 237.511C153.851 237.01 152.428 236.904 150.823 237.195C148.66 237.587 146.734 238.498 145.045 239.929C143.39 241.354 142.108 243.147 141.197 245.309C140.279 247.435 139.877 249.722 139.989 252.17ZM148.16 250.745C148.134 249.588 148.368 248.475 148.862 247.405C149.349 246.301 150.031 245.379 150.907 244.639C151.819 243.893 152.818 243.44 153.906 243.28C154.644 243.182 155.307 243.262 155.893 243.519C156.507 243.734 157.042 244.109 157.497 244.644C157.981 245.137 158.359 245.74 158.63 246.453C158.895 247.131 159.047 247.884 159.086 248.712C159.097 249.581 158.962 250.44 158.682 251.29C158.401 252.139 158 252.92 157.478 253.631C156.986 254.301 156.401 254.861 155.725 255.31C155.049 255.759 154.324 256.036 153.55 256.139C152.504 256.329 151.564 256.209 150.732 255.779C149.927 255.307 149.301 254.622 148.853 253.723C148.44 252.818 148.209 251.825 148.16 250.745Z" fill="white"/>
<path d="M187.856 240.834L187.924 256.068L196.034 254.599L195.92 238.503C195.851 236.7 195.485 235.151 194.822 233.856C194.188 232.519 193.241 231.547 191.98 230.94C190.72 230.333 189.113 230.207 187.16 230.561C185.486 230.864 184.104 231.495 183.014 232.455C181.954 233.373 181.111 234.505 180.487 235.853L180.409 232.382L172.561 233.803L172.75 258.815L180.599 257.394L180.512 242.055C180.495 241.151 180.639 240.344 180.945 239.635C181.245 238.892 181.695 238.284 182.295 237.812C182.895 237.34 183.613 237.029 184.451 236.877C185.323 236.719 185.991 236.834 186.456 237.222C186.95 237.568 187.291 238.069 187.48 238.724C187.698 239.338 187.823 240.042 187.856 240.834Z" fill="white"/>
<path d="M200.973 255.447C201.332 257.669 202.075 259.513 203.2 260.979C204.367 262.473 205.901 263.502 207.801 264.066C209.702 264.629 211.978 264.671 214.629 264.191C217.245 263.717 219.491 262.784 221.368 261.391C223.279 259.993 224.722 258.189 225.696 255.979C226.712 253.799 227.182 251.282 227.105 248.428L226.905 223.962L219.37 225.327L219.509 249.749C219.573 251.117 219.364 252.371 218.883 253.51C218.402 254.65 217.706 255.593 216.795 256.339C215.918 257.078 214.87 257.559 213.649 257.78C212.672 257.957 211.818 257.912 211.086 257.645C210.361 257.413 209.782 256.992 209.349 256.381C208.922 255.804 208.61 255.062 208.412 254.154L200.973 255.447ZM200.38 240.908C200.515 243.279 201.097 245.333 202.127 247.071C203.156 248.808 204.518 250.086 206.212 250.905C207.907 251.723 209.818 251.94 211.945 251.554C213.515 251.27 214.927 250.706 216.181 249.862C217.463 248.976 218.51 247.879 219.321 246.571C220.167 245.256 220.79 243.8 221.189 242.203C221.618 240.565 221.783 238.865 221.685 237.104C221.594 235.378 221.294 233.799 220.787 232.366C220.314 230.927 219.629 229.708 218.731 228.709C217.833 227.711 216.749 226.981 215.479 226.522C214.243 226.056 212.823 225.968 211.219 226.258C209.091 226.644 207.179 227.534 205.484 228.93C203.817 230.285 202.521 232.008 201.598 234.099C200.709 236.184 200.303 238.453 200.38 240.908ZM208.5 239.492C208.509 238.329 208.749 237.251 209.22 236.258C209.72 235.223 210.393 234.357 211.241 233.659C212.124 232.955 213.144 232.516 214.301 232.343C214.999 232.217 215.655 232.261 216.27 232.477C216.913 232.65 217.459 232.987 217.908 233.487C218.386 233.945 218.757 234.513 219.022 235.191C219.28 235.834 219.432 236.586 219.478 237.449C219.489 238.319 219.351 239.16 219.064 239.974C218.777 240.789 218.366 241.516 217.833 242.158C217.334 242.792 216.746 243.334 216.07 243.784C215.422 244.191 214.729 244.444 213.99 244.541C212.903 244.702 211.949 244.602 211.129 244.243C210.337 243.842 209.706 243.23 209.235 242.408C208.8 241.579 208.554 240.607 208.5 239.492Z" fill="white"/>
<path d="M245.805 246.131C248.875 245.575 251.398 244.483 253.377 242.854C255.39 241.219 256.818 239.127 257.66 236.579L250.548 236.07C250.025 237.181 249.326 238.106 248.45 238.846C247.573 239.585 246.472 240.075 245.147 240.315C244.031 240.517 243.042 240.424 242.18 240.035C241.354 239.641 240.696 238.979 240.207 238.052C239.752 237.118 239.499 236.002 239.448 234.704C239.409 233.477 239.463 232.36 239.607 231.354C239.781 230.306 240.069 229.401 240.474 228.638C240.913 227.869 241.467 227.242 242.137 226.758C242.835 226.232 243.656 225.884 244.597 225.713C245.504 225.549 246.271 225.61 246.898 225.896C247.56 226.175 248.093 226.641 248.498 227.294C248.937 227.94 249.247 228.773 249.429 229.793C249.486 230.11 249.482 230.492 249.417 230.939C249.347 231.351 249.238 231.752 249.091 232.141L250.49 229.383L235.003 232.188L235.792 236.619L257.559 232.677C257.645 232.153 257.681 231.548 257.667 230.861C257.653 230.174 257.595 229.549 257.495 228.986C257.094 226.736 256.317 224.898 255.163 223.473C254.037 222.008 252.562 221.004 250.737 220.463C248.941 219.881 246.822 219.811 244.381 220.253C242.148 220.658 240.173 221.396 238.456 222.47C236.739 223.543 235.316 224.853 234.188 226.401C233.088 227.906 232.325 229.587 231.9 231.443C231.474 233.299 231.44 235.229 231.797 237.233C232.204 239.519 233.044 241.4 234.315 242.875C235.621 244.345 237.245 245.376 239.187 245.968C241.157 246.519 243.363 246.573 245.805 246.131Z" fill="white"/>
<path d="M277.07 224.679L277.138 239.912L285.248 238.444L285.135 222.348C285.065 220.545 284.699 218.996 284.036 217.7C283.402 216.363 282.455 215.391 281.194 214.785C279.934 214.178 278.327 214.052 276.374 214.405C274.7 214.709 273.318 215.34 272.228 216.299C271.168 217.218 270.325 218.35 269.701 219.697L269.623 216.227L261.775 217.648L261.964 242.66L269.813 241.239L269.726 225.9C269.709 224.996 269.854 224.189 270.159 223.48C270.459 222.736 270.909 222.129 271.509 221.657C272.109 221.185 272.827 220.874 273.665 220.722C274.537 220.564 275.205 220.679 275.67 221.067C276.164 221.413 276.506 221.914 276.694 222.569C276.912 223.183 277.037 223.886 277.07 224.679Z" fill="white"/>
<path d="M288.179 212.867L288.202 219.668L303.952 216.817L303.928 210.015L288.179 212.867ZM292.169 203.432L292.45 237.14L299.932 235.785L299.756 202.058L292.169 203.432Z" fill="white"/>
<path d="M323.355 193.429L323.707 231.479L332.654 229.859L332.354 191.8L323.355 193.429ZM336.735 229.12C339.631 228.596 342.238 227.67 344.558 226.342C346.872 224.98 348.844 223.316 350.474 221.351C352.139 219.38 353.399 217.155 354.254 214.677C355.109 212.199 355.498 209.533 355.421 206.679C355.329 203.937 354.786 201.495 353.792 199.352C352.826 197.167 351.467 195.399 349.714 194.046C347.989 192.653 345.947 191.698 343.586 191.181C341.261 190.659 338.685 190.653 335.86 191.165L329.058 192.396L329.055 200.564L336.118 199.285C337.583 199.02 338.932 199.012 340.165 199.26C341.432 199.503 342.514 200.015 343.409 200.796C344.304 201.578 345.008 202.594 345.518 203.845C346.064 205.089 346.365 206.577 346.422 208.309C346.452 210.699 345.997 212.796 345.058 214.6C344.148 216.362 342.893 217.805 341.293 218.93C339.687 220.019 337.872 220.747 335.849 221.114L329.309 222.298L329.358 230.456L336.735 229.12Z" fill="white"/>
<path d="M373.086 223.082C376.155 222.526 378.679 221.434 380.658 219.805C382.671 218.17 384.098 216.079 384.941 213.531L377.828 213.022C377.306 214.133 376.607 215.058 375.73 215.797C374.854 216.537 373.753 217.027 372.428 217.267C371.311 217.469 370.323 217.376 369.461 216.987C368.635 216.592 367.977 215.931 367.487 215.003C367.033 214.069 366.78 212.953 366.729 211.656C366.69 210.429 366.743 209.312 366.888 208.306C367.061 207.258 367.35 206.352 367.754 205.59C368.194 204.82 368.748 204.194 369.418 203.709C370.116 203.184 370.936 202.835 371.878 202.665C372.785 202.501 373.552 202.561 374.179 202.847C374.841 203.127 375.374 203.593 375.779 204.245C376.218 204.892 376.528 205.725 376.71 206.745C376.766 207.061 376.762 207.443 376.698 207.89C376.627 208.302 376.519 208.703 376.372 209.093L377.771 206.335L362.284 209.139L363.073 213.57L384.839 209.629C384.926 209.105 384.962 208.499 384.948 207.812C384.933 207.125 384.876 206.5 384.776 205.938C384.375 203.687 383.597 201.85 382.443 200.425C381.318 198.959 379.843 197.956 378.018 197.415C376.222 196.833 374.103 196.763 371.661 197.205C369.429 197.609 367.454 198.348 365.737 199.421C364.02 200.494 362.597 201.805 361.469 203.352C360.369 204.858 359.606 206.539 359.18 208.395C358.755 210.25 358.721 212.18 359.078 214.185C359.485 216.47 360.324 218.351 361.596 219.827C362.902 221.297 364.526 222.327 366.467 222.92C368.438 223.47 370.644 223.524 373.086 223.082Z" fill="white"/>
<path d="M420.722 198.394L411.589 177.451L401.596 179.261L421.321 216.308L439.216 172.449L428.856 174.325L420.722 198.394Z" fill="white"/>
<path d="M441.462 175.69C441.687 176.956 442.325 177.911 443.376 178.556C444.427 179.2 445.581 179.409 446.837 179.182C448.127 178.948 449.136 178.348 449.864 177.381C450.627 176.408 450.896 175.288 450.67 174.022C450.445 172.757 449.81 171.819 448.765 171.21C447.749 170.559 446.595 170.35 445.305 170.584C444.049 170.811 443.04 171.411 442.277 172.384C441.508 173.322 441.236 174.424 441.462 175.69ZM442.355 184.948L442.597 209.95L450.184 208.577L449.942 183.574L442.355 184.948Z" fill="white"/>
<path d="M469.249 205.669C472.319 205.113 474.842 204.021 476.821 202.392C478.834 200.757 480.261 198.665 481.104 196.117L473.992 195.608C473.469 196.719 472.77 197.644 471.894 198.384C471.017 199.123 469.916 199.613 468.591 199.853C467.475 200.055 466.486 199.962 465.624 199.573C464.798 199.179 464.14 198.517 463.65 197.59C463.196 196.656 462.943 195.54 462.892 194.242C462.853 193.015 462.907 191.898 463.051 190.892C463.225 189.844 463.513 188.939 463.918 188.176C464.357 187.407 464.911 186.78 465.581 186.296C466.279 185.77 467.1 185.422 468.041 185.251C468.948 185.087 469.715 185.148 470.342 185.434C471.004 185.713 471.537 186.179 471.942 186.832C472.381 187.478 472.691 188.311 472.873 189.331C472.93 189.648 472.926 190.03 472.861 190.477C472.791 190.889 472.682 191.29 472.535 191.679L473.934 188.921L458.447 191.726L459.236 196.157L481.003 192.215C481.089 191.691 481.125 191.086 481.111 190.399C481.097 189.712 481.039 189.087 480.939 188.524C480.538 186.273 479.76 184.436 478.606 183.011C477.481 181.546 476.006 180.542 474.181 180.001C472.385 179.419 470.266 179.349 467.825 179.791C465.592 180.196 463.617 180.934 461.9 182.007C460.183 183.081 458.76 184.391 457.632 185.938C456.532 187.444 455.769 189.125 455.344 190.981C454.918 192.837 454.884 194.767 455.241 196.771C455.648 199.057 456.487 200.938 457.759 202.413C459.065 203.883 460.689 204.914 462.631 205.506C464.601 206.057 466.807 206.111 469.249 205.669Z" fill="white"/>
<path d="M501.788 161.118L503.632 186.32L510.067 185.155L511.415 159.375L501.788 161.118ZM502.028 195.813C502.267 197.149 502.932 198.154 504.024 198.827C505.116 199.5 506.36 199.711 507.755 199.458C509.22 199.193 510.331 198.556 511.087 197.548C511.879 196.534 512.155 195.358 511.917 194.022C511.679 192.686 511.014 191.681 509.922 191.007C508.865 190.328 507.603 190.12 506.138 190.386C504.743 190.638 503.65 191.272 502.858 192.287C502.067 193.301 501.79 194.476 502.028 195.813Z" fill="white"/>
<defs>
<filter id="filter0_d_19_5" x="0" y="32" width="370" height="348" filterUnits="userSpaceOnUse" color-interpolation-filters="sRGB">
<feFlood flood-opacity="0" result="BackgroundImageFix"/>
<feColorMatrix in="SourceAlpha" type="matrix" values="0 0 0 0 0 0 0 0 0 0 0 0 0 0 0 0 0 0 127 0" result="hardAlpha"/>
<feOffset dx="10" dy="10"/>
<feGaussianBlur stdDeviation="12.5"/>
<feComposite in2="hardAlpha" operator="out"/>
<feColorMatrix type="matrix" values="0 0 0 0 0 0 0 0 0 0 0 0 0 0 0 0 0 0 0.25 0"/>
<feBlend mode="normal" in2="BackgroundImageFix" result="effect1_dropShadow_19_5"/>
<feBlend mode="normal" in="SourceGraphic" in2="effect1_dropShadow_19_5" result="shape"/>
</filter>
<filter id="filter1_d_19_5" x="73" y="0" width="520" height="339" filterUnits="userSpaceOnUse" color-interpolation-filters="sRGB">
<feFlood flood-opacity="0" result="BackgroundImageFix"/>
<feColorMatrix in="SourceAlpha" type="matrix" values="0 0 0 0 0 0 0 0 0 0 0 0 0 0 0 0 0 0 127 0" result="hardAlpha"/>
<feOffset dx="10" dy="10"/>
<feGaussianBlur stdDeviation="12.5"/>
<feComposite in2="hardAlpha" operator="out"/>
<feColorMatrix type="matrix" values="0 0 0 0 0 0 0 0 0 0 0 0 0 0 0 0 0 0 0.25 0"/>
<feBlend mode="normal" in2="BackgroundImageFix" result="effect1_dropShadow_19_5"/>
<feBlend mode="normal" in="SourceGraphic" in2="effect1_dropShadow_19_5" result="shape"/>
</filter>
</defs>
</svg>
