<svg xmlns="http://www.w3.org/2000/svg" xmlns:xlink="http://www.w3.org/1999/xlink" viewBox="0 0 204.22248 228.81176"><defs><style>.cls-1{fill:#7520ff;}.cls-2{fill:#ff206e;}.cls-3{fill:#ffae12;}.cls-4{fill:#41ead4;}.cls-5{fill:#f1f1f1;}.cls-6{fill:url(#Dégradé_sans_nom_383);}.cls-7{fill:url(#Dégradé_sans_nom_383-2);}.cls-8{fill:url(#Dégradé_sans_nom_383-3);}.cls-9{fill:url(#Dégradé_sans_nom_383-4);}.cls-10{fill:url(#Dégradé_sans_nom_383-5);}.cls-11{fill:url(#Dégradé_sans_nom_383-6);}</style><linearGradient id="Dégradé_sans_nom_383" x1="715.77164" y1="265.24901" x2="856.53664" y2="348.37795" gradientTransform="translate(-268.00048 863.52857) rotate(-90)" gradientUnits="userSpaceOnUse"><stop offset="0"/><stop offset="0.32102" stop-opacity="0"/></linearGradient><linearGradient id="Dégradé_sans_nom_383-2" x1="320.65202" y1="-27.81264" x2="461.41702" y2="55.3163" gradientTransform="translate(-242.98945 224.6801) rotate(-30)" xlink:href="#Dégradé_sans_nom_383"/><linearGradient id="Dégradé_sans_nom_383-3" x1="-130.70663" y1="167.84017" x2="10.05837" y2="250.9691" gradientTransform="matrix(0.86603, 0.5, -0.5, 0.86603, 322.77508, -73.08395)" xlink:href="#Dégradé_sans_nom_383"/><linearGradient id="Dégradé_sans_nom_383-4" x1="-186.94565" y1="656.55462" x2="-46.18065" y2="739.68356" gradientTransform="translate(863.52857 268.00048) rotate(90)" xlink:href="#Dégradé_sans_nom_383"/><linearGradient id="Dégradé_sans_nom_383-5" x1="208.17397" y1="949.61628" x2="348.93897" y2="1032.74521" gradientTransform="translate(838.51754 906.84896) rotate(150)" xlink:href="#Dégradé_sans_nom_383"/><linearGradient id="Dégradé_sans_nom_383-6" x1="659.53262" y1="753.96347" x2="800.29762" y2="837.09241" gradientTransform="matrix(-0.86603, -0.5, 0.5, -0.86603, 272.75301, 1204.613)" xlink:href="#Dégradé_sans_nom_383"/></defs><g id="Calque_2" data-name="Calque 2"><g id="Calque_1-2" data-name="Calque 1"><path class="cls-1" d="M11.30072,127.71209,45.21847,147.2945V135.49705c-.02408-.42752-.03914-.85739-.03914-1.29093l.00006-91.79595a22.58985,22.58985,0,0,1,10.773-19.26231L11.3088,48.92279c-.02964.01714-.05757.036-.08713.05327q-.37644.22013-.74312.45449c-.09228.05862-.18464.117-.27579.17678-.19643.12928-.38981.26254-.58194.39771-.13405.09391-.2681.1877-.39951.28411-.13279.0978-.26308.19861-.39366.29925-.18092.1389-.361.2783-.53682.42184-.06782.05561-.13392.1131-.20107.16946-.22829.191-.45374.38434-.673.583l-.02.01869A22.4513,22.4513,0,0,0,3.299,56.74606c-.0904.14823-.1744.30063-.26145.45107-.08739.15169-.178.30176-.26178.45525A22.452,22.452,0,0,0,.52631,63.67846l-.00766.033c-.06225.28867-.11686.58-.168.87265-.01526.08626-.032.17218-.0462.25865-.03654.22465-.06731.45106-.09721.67785-.02174.16252-.04382.32488-.062.4879-.01785.16257-.03207.32605-.04645.48966-.021.23406-.03968.46821-.05343.70307-.00611.108-.0105.21633-.0151.32471q-.01924.4362-.02212.8734c-.00016.03387-.00255.06719-.00255.1011l0,40.25157A22.59,22.59,0,0,0,11.30072,127.71209Z"/><path class="cls-2" d="M45.18246,42.41477l0,39.16484,10.21688-5.89873c.35821-.23461.723-.46258,1.09842-.67936L135.99542,29.1036a22.58986,22.58986,0,0,1,22.06813-.3015L113.42,3.02712c-.02967-.0171-.06-.03184-.0897-.04883q-.37886-.21592-.76516-.41631c-.09691-.05061-.19367-.10139-.291-.15046-.21018-.10547-.42227-.20631-.6354-.30511-.14835-.06913-.2966-.13833-.4458-.20393-.1511-.06611-.30354-.12853-.456-.1913-.21075-.08723-.42154-.17352-.63373-.254-.08207-.03092-.16491-.05943-.2473-.0894-.27955-.10221-.55971-.20078-.84138-.29134l-.0262-.008A22.45094,22.45094,0,0,0,102.64.00207c-.17357-.00417-.34755-.00072-.52136-.00089-.17506.00017-.35033-.00327-.52515.00091A22.45222,22.45222,0,0,0,95.25,1.067l-.03243.00989c-.28113.09041-.56074.18879-.83974.29083-.08234.02991-.16511.05839-.2471.08931-.21283.08068-.42429.16724-.63564.25474-.15162.06243-.30327.12449-.45354.19025-.14971.06582-.2984.13525-.44728.2046-.21322.09882-.42532.19974-.63559.30526-.09659.04871-.1926.09908-.28876.14928q-.38739.20142-.76745.41755c-.02941.01679-.05946.03139-.08883.04834L55.95476,23.15285A22.59,22.59,0,0,0,45.18246,42.41477Z"/><path class="cls-3" d="M135.993,29.10856,102.07524,48.691l10.21689,5.89872c.38229.1929.76209.3948,1.13755.61158l79.49759,45.898a22.58985,22.58985,0,0,1,11.29517,18.96082l0-51.54991c0-.03425-.00243-.06788-.00257-.1021q-.00243-.43606-.022-.8708c-.00463-.10923-.009-.21842-.0152-.32724-.01375-.23475-.03246-.46885-.05346-.70282-.01431-.163-.0285-.326-.0463-.48805-.01829-.1639-.04045-.32713-.06232-.49054-.02983-.22613-.06049-.45182-.09692-.67582-.01425-.08654-.031-.17253-.04622-.25886-.05126-.29321-.106-.58512-.16837-.87433l-.00618-.02669a22.45134,22.45134,0,0,0-2.25068-6.03107c-.08317-.1524-.17316-.30135-.25991-.452-.08768-.15152-.17234-.305-.26337-.45433a22.45218,22.45218,0,0,0-4.094-4.96114l-.02478-.02314c-.21887-.19826-.44387-.39122-.67174-.58182-.06707-.05635-.13312-.11379-.2009-.16934-.17628-.144-.357-.28383-.53843-.42311-.12987-.10009-.25944-.20039-.39153-.29765-.13186-.09675-.26633-.1908-.40083-.28506-.19219-.13525-.38564-.26847-.58215-.39781-.09048-.05929-.18211-.11726-.27366-.17543q-.36814-.23476-.74534-.45585c-.02924-.01708-.05691-.03581-.08628-.05276L158.06044,28.80668A22.59,22.59,0,0,0,135.993,29.10856Z"/><path class="cls-4" d="M192.92176,101.09967,159.004,81.51726l0,11.79744c.02408.42753.03913.8574.03913,1.29094l0,91.79594a22.58985,22.58985,0,0,1-10.773,19.26231L192.91367,179.889c.02965-.01714.05758-.036.08714-.05327q.37642-.22014.74312-.45449c.09228-.05862.18464-.117.27579-.17678.19643-.12928.38981-.26254.58194-.39772.134-.09391.26809-.18769.39951-.28411.13279-.0978.26308-.1986.39365-.29924.18092-.1389.361-.2783.53683-.42184.06781-.05561.13392-.1131.20107-.16947.22829-.191.45374-.38433.673-.583l.02-.01869a22.4514,22.4514,0,0,0,4.09772-4.96469c.09039-.14822.17439-.30062.26145-.45106.08738-.1517.178-.30176.26178-.45525a22.45232,22.45232,0,0,0,2.24947-6.02608l.00765-.033c.06226-.28867.11687-.58.168-.87265.01526-.08626.032-.17219.0462-.25865.03655-.22466.06732-.45107.09722-.67785.02174-.16253.04381-.32488.062-.48791.01786-.16256.03207-.326.04645-.48965.021-.23407.03968-.46821.05344-.70307.0061-.108.01049-.21633.01509-.32471q.01926-.4362.02212-.8734c.00017-.03387.00255-.0672.00255-.10111l0-40.25156A22.59,22.59,0,0,0,192.92176,101.09967Z"/><path class="cls-5" d="M159.04,186.397l0-39.16484-10.21688,5.89872c-.35821.23462-.723.46259-1.09842.67936L68.22705,199.70816a22.58988,22.58988,0,0,1-22.06813.3015l44.64351,25.775c.02967.0171.06.03184.0897.04883q.37887.21592.76517.41631c.0969.05061.19367.10139.291.15045.21018.10548.42227.20632.6354.30512.14835.06913.29659.13833.4458.20393.15109.0661.30354.12853.456.19129.21074.08723.42153.17353.63373.254.08207.03093.16491.05943.24729.08941.27956.10221.55972.20078.84138.29134l.0262.008a22.45136,22.45136,0,0,0,6.34841,1.06639c.17356.00417.34755.00071.52136.00088.17506-.00016.35032.00327.52514-.00091a22.45233,22.45233,0,0,0,6.34348-1.06494l.03243-.00989c.28112-.09042.56074-.1888.83974-.29083.08233-.02991.16511-.05839.2471-.08931.21282-.08068.42429-.16724.63564-.25474.15162-.06243.30326-.12449.45354-.19025.14971-.06582.2984-.13526.44728-.2046.21322-.09882.42532-.19974.63559-.30526.09658-.04871.1926-.09908.28875-.14928q.38739-.20144.76746-.41755c.02941-.01679.05946-.03139.08883-.04834l34.85889-20.12576A22.59,22.59,0,0,0,159.04,186.397Z"/><path class="cls-5" d="M68.2295,199.7032l33.91773-19.58243-10.21688-5.89872c-.38229-.19291-.76209-.39481-1.13756-.61158l-79.49759-45.898A22.58985,22.58985,0,0,1,0,108.75164l0,51.54991c0,.03424.00243.06788.00256.10209q.00243.43608.02205.87081c.00462.10923.009.21842.0152.32723.01374.23476.03246.46886.05346.70283.0143.163.0285.326.04629.488.0183.16391.04046.32714.06233.49055.02983.22613.06049.45182.09691.67582.01425.08653.031.17253.04622.25886.05127.29321.106.58512.16838.87433l.00617.02669a22.4517,22.4517,0,0,0,2.25069,6.03107c.08317.1524.17315.30135.25991.452.08768.15152.17233.305.26336.45433a22.45245,22.45245,0,0,0,4.094,4.96114l.02478.02314c.21886.19825.44387.39122.67174.58182.06707.05635.13312.11379.20089.16934.17629.144.357.28383.53843.42311.12988.10009.25945.20039.39153.29765.13186.09674.26634.1908.40083.28506.19219.13524.38564.26847.58216.39781.09048.05928.1821.11725.27366.17542q.36813.23478.74533.45586c.02925.01708.05692.03581.08628.05276L46.162,200.00508A22.59,22.59,0,0,0,68.2295,199.7032Z"/><g id="Masque_ombre" data-name="Masque ombre"><path class="cls-6" d="M11.30072,127.71209,45.21847,147.2945V135.49705c-.02408-.42752-.03914-.85739-.03914-1.29093l.00006-91.79595a22.58985,22.58985,0,0,1,10.773-19.26231L11.3088,48.92279c-.02964.01714-.05757.036-.08713.05327q-.37644.22013-.74312.45449c-.09228.05862-.18464.117-.27579.17678-.19643.12928-.38981.26254-.58194.39771-.13405.09391-.2681.1877-.39951.28411-.13279.0978-.26308.19861-.39366.29925-.18092.1389-.361.2783-.53682.42184-.06782.05561-.13392.1131-.20107.16946-.22829.191-.45374.38434-.673.583l-.02.01869A22.4513,22.4513,0,0,0,3.299,56.74606c-.0904.14823-.1744.30063-.26145.45107-.08739.15169-.178.30176-.26178.45525A22.452,22.452,0,0,0,.52631,63.67846l-.00766.033c-.06225.28867-.11686.58-.168.87265-.01526.08626-.032.17218-.0462.25865-.03654.22465-.06731.45106-.09721.67785-.02174.16252-.04382.32488-.062.4879-.01785.16257-.03207.32605-.04645.48966-.021.23406-.03968.46821-.05343.70307-.00611.108-.0105.21633-.0151.32471q-.01924.4362-.02212.8734c-.00016.03387-.00255.06719-.00255.1011l0,40.25157A22.59,22.59,0,0,0,11.30072,127.71209Z"/><path class="cls-7" d="M45.18246,42.41477l0,39.16484,10.21688-5.89873c.35821-.23461.723-.46258,1.09842-.67936L135.99542,29.1036a22.58986,22.58986,0,0,1,22.06813-.3015L113.42,3.02712c-.02967-.0171-.06-.03184-.0897-.04883q-.37886-.21592-.76516-.41631c-.09691-.05061-.19367-.10139-.291-.15046-.21018-.10547-.42227-.20631-.6354-.30511-.14835-.06913-.2966-.13833-.4458-.20393-.1511-.06611-.30354-.12853-.456-.1913-.21075-.08723-.42154-.17352-.63373-.254-.08207-.03092-.16491-.05943-.2473-.0894-.27955-.10221-.55971-.20078-.84138-.29134l-.0262-.008A22.45094,22.45094,0,0,0,102.64.00207c-.17357-.00417-.34755-.00072-.52136-.00089-.17506.00017-.35033-.00327-.52515.00091A22.45222,22.45222,0,0,0,95.25,1.067l-.03243.00989c-.28113.09041-.56074.18879-.83974.29083-.08234.02991-.16511.05839-.2471.08931-.21283.08068-.42429.16724-.63564.25474-.15162.06243-.30327.12449-.45354.19025-.14971.06582-.2984.13525-.44728.2046-.21322.09882-.42532.19974-.63559.30526-.09659.04871-.1926.09908-.28876.14928q-.38739.20142-.76745.41755c-.02941.01679-.05946.03139-.08883.04834L55.95476,23.15285A22.59,22.59,0,0,0,45.18246,42.41477Z"/><path class="cls-8" d="M135.993,29.10856,102.07524,48.691l10.21689,5.89872c.38229.1929.76209.3948,1.13755.61158l79.49759,45.898a22.58985,22.58985,0,0,1,11.29517,18.96082l0-51.54991c0-.03425-.00243-.06788-.00257-.1021q-.00243-.43606-.022-.8708c-.00463-.10923-.009-.21842-.0152-.32724-.01375-.23475-.03246-.46885-.05346-.70282-.01431-.163-.0285-.326-.0463-.48805-.01829-.1639-.04045-.32713-.06232-.49054-.02983-.22613-.06049-.45182-.09692-.67582-.01425-.08654-.031-.17253-.04622-.25886-.05126-.29321-.106-.58512-.16837-.87433l-.00618-.02669a22.45134,22.45134,0,0,0-2.25068-6.03107c-.08317-.1524-.17316-.30135-.25991-.452-.08768-.15152-.17234-.305-.26337-.45433a22.45218,22.45218,0,0,0-4.094-4.96114l-.02478-.02314c-.21887-.19826-.44387-.39122-.67174-.58182-.06707-.05635-.13312-.11379-.2009-.16934-.17628-.144-.357-.28383-.53843-.42311-.12987-.10009-.25944-.20039-.39153-.29765-.13186-.09675-.26633-.1908-.40083-.28506-.19219-.13525-.38564-.26847-.58215-.39781-.09048-.05929-.18211-.11726-.27366-.17543q-.36814-.23476-.74534-.45585c-.02924-.01708-.05691-.03581-.08628-.05276L158.06044,28.80668A22.59,22.59,0,0,0,135.993,29.10856Z"/><path class="cls-9" d="M192.92176,101.09967,159.004,81.51726l0,11.79744c.02408.42753.03913.8574.03913,1.29094l0,91.79594a22.58985,22.58985,0,0,1-10.773,19.26231L192.91367,179.889c.02965-.01714.05758-.036.08714-.05327q.37642-.22014.74312-.45449c.09228-.05862.18464-.117.27579-.17678.19643-.12928.38981-.26254.58194-.39772.134-.09391.26809-.18769.39951-.28411.13279-.0978.26308-.1986.39365-.29924.18092-.1389.361-.2783.53683-.42184.06781-.05561.13392-.1131.20107-.16947.22829-.191.45374-.38433.673-.583l.02-.01869a22.4514,22.4514,0,0,0,4.09772-4.96469c.09039-.14822.17439-.30062.26145-.45106.08738-.1517.178-.30176.26178-.45525a22.45232,22.45232,0,0,0,2.24947-6.02608l.00765-.033c.06226-.28867.11687-.58.168-.87265.01526-.08626.032-.17219.0462-.25865.03655-.22466.06732-.45107.09722-.67785.02174-.16253.04381-.32488.062-.48791.01786-.16256.03207-.326.04645-.48965.021-.23407.03968-.46821.05344-.70307.0061-.108.01049-.21633.01509-.32471q.01926-.4362.02212-.8734c.00017-.03387.00255-.0672.00255-.10111l0-40.25156A22.59,22.59,0,0,0,192.92176,101.09967Z"/><path class="cls-10" d="M159.04,186.397l0-39.16484-10.21688,5.89872c-.35821.23462-.723.46259-1.09842.67936L68.22705,199.70816a22.58988,22.58988,0,0,1-22.06813.3015l44.64351,25.775c.02967.0171.06.03184.0897.04883q.37887.21592.76517.41631c.0969.05061.19367.10139.291.15045.21018.10548.42227.20632.6354.30512.14835.06913.29659.13833.4458.20393.15109.0661.30354.12853.456.19129.21074.08723.42153.17353.63373.254.08207.03093.16491.05943.24729.08941.27956.10221.55972.20078.84138.29134l.0262.008a22.45136,22.45136,0,0,0,6.34841,1.06639c.17356.00417.34755.00071.52136.00088.17506-.00016.35032.00327.52514-.00091a22.45233,22.45233,0,0,0,6.34348-1.06494l.03243-.00989c.28112-.09042.56074-.1888.83974-.29083.08233-.02991.16511-.05839.2471-.08931.21282-.08068.42429-.16724.63564-.25474.15162-.06243.30326-.12449.45354-.19025.14971-.06582.2984-.13526.44728-.2046.21322-.09882.42532-.19974.63559-.30526.09658-.04871.1926-.09908.28875-.14928q.38739-.20144.76746-.41755c.02941-.01679.05946-.03139.08883-.04834l34.85889-20.12576A22.59,22.59,0,0,0,159.04,186.397Z"/><path class="cls-11" d="M68.2295,199.7032l33.91773-19.58243-10.21688-5.89872c-.38229-.19291-.76209-.39481-1.13756-.61158l-79.49759-45.898A22.58985,22.58985,0,0,1,0,108.75164l0,51.54991c0,.03424.00243.06788.00256.10209q.00243.43608.02205.87081c.00462.10923.009.21842.0152.32723.01374.23476.03246.46886.05346.70283.0143.163.0285.326.04629.488.0183.16391.04046.32714.06233.49055.02983.22613.06049.45182.09691.67582.01425.08653.031.17253.04622.25886.05127.29321.106.58512.16838.87433l.00617.02669a22.4517,22.4517,0,0,0,2.25069,6.03107c.08317.1524.17315.30135.25991.452.08768.15152.17233.305.26336.45433a22.45245,22.45245,0,0,0,4.094,4.96114l.02478.02314c.21886.19825.44387.39122.67174.58182.06707.05635.13312.11379.20089.16934.17629.144.357.28383.53843.42311.12988.10009.25945.20039.39153.29765.13186.09674.26634.1908.40083.28506.19219.13524.38564.26847.58216.39781.09048.05928.1821.11725.27366.17542q.36813.23478.74533.45586c.02925.01708.05692.03581.08628.05276L46.162,200.00508A22.59,22.59,0,0,0,68.2295,199.7032Z"/></g></g></g></svg>