<svg xmlns="http://www.w3.org/2000/svg" viewBox="0 0 593.54866 376.51653"><defs><style>.cls-1{fill:#290b59;}.cls-2{fill:#7520ff;}.cls-3{fill:#fff;}</style></defs><g id="Calque_2" data-name="Calque 2"><g id="Calque_1-2" data-name="Calque 1"><path class="cls-1" d="M574.05929,310.08417,173.29646,376.25666c-10.76368,1.77726-19.48937-5.74975-19.48937-16.812V202.46307c0-11.06229,8.72569-21.4708,19.48937-23.24806l400.76283-66.17249c10.76368-1.77726,19.48937,5.74975,19.48937,16.812V286.83611C593.54866,297.8984,584.823,308.30691,574.05929,310.08417Z"/><path class="cls-2" d="M539.07865,252.57483,25,337.2853c-13.80712,2.27515-25-7.36052-25-21.52187V114.80407C0,100.64272,11.19288,87.3183,25,85.04315L539.07865.33268c13.80712-2.27515,25,7.36051,25,21.52186V222.81391C564.07865,236.97526,552.88577,250.29968,539.07865,252.57483Z"/><path class="cls-3" d="M199.3083,343.00579a3.68189,3.68189,0,0,0,1.94922,1.374,5.84118,5.84118,0,0,0,2.69971.13086,8.46275,8.46275,0,0,0,2.42969-.75488,9.444,9.444,0,0,0,1.85009-1.21094,12.4754,12.4754,0,0,0,1.4336-1.41016l-.0542,5.50781a14.32084,14.32084,0,0,1-2.53662,1.75684,11.27455,11.27455,0,0,1-3.53321,1.1123,13.06533,13.06533,0,0,1-4.45605.04,8.011,8.011,0,0,1-3.46631-1.44531,7.14463,7.14463,0,0,1-2.21435-2.77246,9.11134,9.11134,0,0,1-.75489-3.93066,11.10009,11.10009,0,0,1,.835-4.19532,11.66064,11.66064,0,0,1,2.27588-3.51855,12.53087,12.53087,0,0,1,3.50635-2.60449,15.31145,15.31145,0,0,1,4.46973-1.44434,9.90379,9.90379,0,0,1,3.52246-.07324,8.50622,8.50622,0,0,1,2.51074.92969l-.0542,5.50879a7.50514,7.50514,0,0,0-1.41064-.93848,6.28187,6.28187,0,0,0-1.832-.59863,7.28419,7.28419,0,0,0-2.42286.05273,7.18224,7.18224,0,0,0-2.71093,1.03027,6.1175,6.1175,0,0,0-1.98291,2.02832,5.48489,5.48489,0,0,0-.76612,2.83594A4.20507,4.20507,0,0,0,199.3083,343.00579Z"/><path class="cls-3" d="M211.59444,338.039a8.27657,8.27657,0,0,1,2.71338-2.70215,10.41694,10.41694,0,0,1,3.87109-1.43848,8.48028,8.48028,0,0,1,3.86865.15137,5.08676,5.08676,0,0,1,2.66895,1.80762,5.22267,5.22267,0,0,1,.95654,3.29,6.826,6.826,0,0,1-1.02393,3.59375,8.42058,8.42058,0,0,1-2.71386,2.70215,10.39031,10.39031,0,0,1-3.88428,1.44042,8.50862,8.50862,0,0,1-3.85547-.15332,4.99247,4.99247,0,0,1-2.66846-1.80761,5.23215,5.23215,0,0,1-.94238-3.2666A6.92638,6.92638,0,0,1,211.59444,338.039ZM215.883,342.245a1.80433,1.80433,0,0,0,.92529.7627,2.49134,2.49134,0,0,0,1.27979.09668,3.11924,3.11924,0,0,0,2.24316-1.59961,3.19092,3.19092,0,0,0,.37744-1.53125,2.49885,2.49885,0,0,0-.34863-1.41113,1.93862,1.93862,0,0,0-.939-.77344,2.38976,2.38976,0,0,0-1.27979-.11035,3.03575,3.03575,0,0,0-1.28613.53711,3.108,3.108,0,0,0-.94336,1.08691,3.25541,3.25541,0,0,0-.36279,1.52832A2.58137,2.58137,0,0,0,215.883,342.245Z"/><path class="cls-3" d="M234.43037,334.84856q-.32958-.47022-1.27783-.3125a2.52507,2.52507,0,0,0-.99219.37988,1.92893,1.92893,0,0,0-.67578.78613,2.72552,2.72552,0,0,0-.24853,1.17481l-.07422,7.55859-4.82471.80176.12207-12.41894,4.82471-.80176-.01807,1.83593a5.23265,5.23265,0,0,1,1.50733-1.80175,5.429,5.429,0,0,1,2.44629-.98535q2.51-.41748,3.5581.63476a4.40825,4.40825,0,0,1,1.02588,3.2666l-.0791,8.04492-5.04785.83887.07422-7.55859A2.49427,2.49427,0,0,0,234.43037,334.84856Z"/><path class="cls-3" d="M249.49629,328.98821l-.03711,3.78027-9.45459,1.57227.03711-3.78028Zm-1.09619-4.62891a1.19463,1.19463,0,0,0-.668-.06445,1.57218,1.57218,0,0,0-.71289.29394,1.51565,1.51565,0,0,0-.46533.61621,2.45454,2.45454,0,0,0-.17627.959l-.15479,15.7666-4.602.76562.167-17.00878a5.36617,5.36617,0,0,1,.59521-2.48438,5.01773,5.01773,0,0,1,1.731-1.86426,7.37343,7.37343,0,0,1,2.87793-1.0459,5.75746,5.75746,0,0,1,1.8247-.06054,3.99709,3.99709,0,0,1,1.23487.38769,7.53768,7.53768,0,0,1,.80322.48633l-1.874,3.6543A1.75411,1.75411,0,0,0,248.4001,324.3593Z"/><path class="cls-3" d="M251.56856,333.415l6.86035-1.14062a2.76945,2.76945,0,0,0-.32227-1.0791,1.32722,1.32722,0,0,0-.69043-.585,2.15323,2.15323,0,0,0-1.11328-.0586,2.8827,2.8827,0,0,0-1.32861.55762,2.79916,2.79916,0,0,0-.84619,1.125,4.24391,4.24391,0,0,0-.3086,1.64063l-.06152.60351a3.897,3.897,0,0,0,.34375,1.87012,1.72183,1.72183,0,0,0,.96582.86328,2.572,2.572,0,0,0,1.28076.09668,4.72862,4.72862,0,0,0,1.28272-.3877,4.08235,4.08235,0,0,0,.98193-.64843,3.4755,3.4755,0,0,0,.70508-.88575l4.34228.11426a9.82486,9.82486,0,0,1-1.60937,2.27539,8.5817,8.5817,0,0,1-2.29981,1.7041,11.09265,11.09265,0,0,1-3.26855,1.01368,8.902,8.902,0,0,1-4.20264-.13672,4.58452,4.58452,0,0,1-2.543-1.88184,5.67728,5.67728,0,0,1-.832-3.19043q.00294-.3501.03467-.67969.03077-.32812.08984-.66113a7.41682,7.41682,0,0,1,1.19825-2.89453,7.5242,7.5242,0,0,1,2.458-2.21484,11.044,11.044,0,0,1,3.75831-1.27246,8.76147,8.76147,0,0,1,3.981.09375,4.15377,4.15377,0,0,1,2.376,1.748,5.83419,5.83419,0,0,1,.77588,3.22657c-.001.10742-.00244.26953-.00488.48535a4.8719,4.8719,0,0,1-.0625.71093l-11.96436,1.98926Zm4.78027-7.53417-2.69385-.792,4.22657-5.01562,3.52636.92285Z"/><path class="cls-3" d="M269.03584,338.13762l-4.71386.78418.12207-12.41894,4.71386-.78418Zm3.05078-8.66016a1.81791,1.81791,0,0,0-.93213-.04687,2.25092,2.25092,0,0,0-1.03564.46875,2.4949,2.4949,0,0,0-.74805,1.0127,4.0075,4.0075,0,0,0-.27929,1.52832l-.98536-1.69434a6.24339,6.24339,0,0,1,.63965-2.748,6.45951,6.45951,0,0,1,1.64991-2.12109,4.47649,4.47649,0,0,1,2.13964-1.043,2.81842,2.81842,0,0,1,1.33594.08789,1.80494,1.80494,0,0,1,.94043.61231l-2.04736,4.35644A2.118,2.118,0,0,0,272.08662,329.47746Z"/><path class="cls-3" d="M277.1711,336.25969a4.73112,4.73112,0,0,1-2.61377-1.80273,5.50064,5.50064,0,0,1-.88672-3.28907,7.33186,7.33186,0,0,1,.92676-3.61718,7.53887,7.53887,0,0,1,2.5874-2.6543,10.78713,10.78713,0,0,1,4.0249-1.45117,8.88932,8.88932,0,0,1,3.92529.07617,4.16716,4.16716,0,0,1,2.40479,1.71582,5.75139,5.75139,0,0,1,.80371,3.27539c-.00195.21582-.00928.42871-.02.63672-.01172.209-.02783.39453-.04785.56055l-11.96436,1.98925.02344-2.40136,7.55811-1.25684-1.04395,1.41113a3.66086,3.66086,0,0,0,.25537-.52636,1.39259,1.39259,0,0,0,.11621-.47754,2.54306,2.54306,0,0,0-.25244-1.23828,1.4771,1.4771,0,0,0-.74463-.68457,2.0841,2.0841,0,0,0-1.15478-.09082A2.69488,2.69488,0,0,0,278.823,328.331a6.23256,6.23256,0,0,0-.29883,2.00195,3.95507,3.95507,0,0,0,.26172,1.73633,1.89977,1.89977,0,0,0,.88135.97168,2.31174,2.31174,0,0,0,1.44678.15039,4.626,4.626,0,0,0,1.80176-.66308,3.51173,3.51173,0,0,0,1.168-1.25879l4.34327.11328a8.76266,8.76266,0,0,1-2.832,3.32812,10.52942,10.52942,0,0,1-4.34619,1.666A9.06748,9.06748,0,0,1,277.1711,336.25969Z"/><path class="cls-3" d="M297.18184,324.41594q-.32886-.47022-1.27686-.31348a2.52283,2.52283,0,0,0-.99267.38086,1.92524,1.92524,0,0,0-.67578.78614,2.71783,2.71783,0,0,0-.24854,1.17383l-.07422,7.55859-4.82519.80176.12207-12.41895,4.82519-.80176-.01806,1.83594a5.2347,5.2347,0,0,1,1.50732-1.80078,5.42993,5.42993,0,0,1,2.44629-.98633q2.51074-.416,3.55859.63574a4.40419,4.40419,0,0,1,1.02539,3.26563l-.0791,8.04492-5.04785.83984.07422-7.55859A2.4901,2.4901,0,0,0,297.18184,324.41594Z"/><path class="cls-3" d="M308.60225,326.89641a2.07063,2.07063,0,0,0,1.13379.79492,3.38465,3.38465,0,0,0,1.55859.07813,5.57151,5.57151,0,0,0,1.36817-.416,5.25175,5.25175,0,0,0,1.24609-.78613,4.75844,4.75844,0,0,0,.97168-1.11914l-.043,4.374a8.69045,8.69045,0,0,1-1.5957.95215,9.3861,9.3861,0,0,1-2.42969.6875,8.736,8.736,0,0,1-3.92481-.14258,5.06128,5.06128,0,0,1-2.69726-1.80273,5.17518,5.17518,0,0,1-.95508-3.26465,6.79981,6.79981,0,0,1,1.02246-3.60547,8.42264,8.42264,0,0,1,2.74219-2.69336,10.67479,10.67479,0,0,1,3.93945-1.45019,8.26448,8.26448,0,0,1,2.42383-.12012,6.866,6.866,0,0,1,1.583.39746l-.043,4.37305a2.43013,2.43013,0,0,0-1.00684-.80176,4.205,4.205,0,0,0-1.292-.33789,4.82767,4.82767,0,0,0-1.25293.03222,3.98694,3.98694,0,0,0-2.71972,1.8545,3.00845,3.00845,0,0,0-.43262,1.52636A2.43018,2.43018,0,0,0,308.60225,326.89641Z"/><path class="cls-3" d="M318.97725,329.3095a4.73305,4.73305,0,0,1-2.61328-1.80371,5.48857,5.48857,0,0,1-.88672-3.28907,7.32939,7.32939,0,0,1,.92676-3.61718,7.53738,7.53738,0,0,1,2.58691-2.6543,10.78917,10.78917,0,0,1,4.02539-1.4502,8.8887,8.8887,0,0,1,3.92481.0752,4.171,4.171,0,0,1,2.40527,1.71582,5.76842,5.76842,0,0,1,.80371,3.27637c-.002.21582-.00977.42773-.02051.63671q-.01758.312-.04785.55957L318.1169,324.748l.02343-2.40136,7.5586-1.25684-1.04395,1.41211a3.781,3.781,0,0,0,.25586-.52734,1.38758,1.38758,0,0,0,.11621-.47754,2.55388,2.55388,0,0,0-.25293-1.23829,1.47007,1.47007,0,0,0-.74511-.68359,2.07269,2.07269,0,0,0-1.1543-.09082,2.69046,2.69046,0,0,0-2.24512,1.89551,6.23892,6.23892,0,0,0-.29883,2.00293,3.93869,3.93869,0,0,0,.26172,1.73535,1.89537,1.89537,0,0,0,.88086.97266,2.32025,2.32025,0,0,0,1.44727.15039,4.645,4.645,0,0,0,1.80176-.66407,3.51224,3.51224,0,0,0,1.168-1.25878l4.34278.11328a8.75423,8.75423,0,0,1-2.832,3.3291,10.51323,10.51323,0,0,1-4.34571,1.665A9.08471,9.08471,0,0,1,318.97725,329.3095Z"/><path class="cls-3" d="M333.69014,323.96575a5.701,5.701,0,0,0,1.47266.32031,4.52941,4.52941,0,0,0,.94628-.02149,1.38978,1.38978,0,0,0,.78321-.34668.88723.88723,0,0,0,.25781-.63574.668.668,0,0,0-.20508-.51855,1.86569,1.86569,0,0,0-.77539-.34375q-.56982-.14649-1.68262-.3125a9.15116,9.15116,0,0,1-1.749-.4502,2.85587,2.85587,0,0,1-1.34082-.99023,3.06873,3.06873,0,0,1-.49707-1.89746,3.50605,3.50605,0,0,1,.66113-2.06446,5.12473,5.12473,0,0,1,1.76953-1.50683,8.29337,8.29337,0,0,1,2.59766-.85059,9.30352,9.30352,0,0,1,2.13184-.125,11.00333,11.00333,0,0,1,1.876.28125,13.09,13.09,0,0,1,1.749.5586l-1.45313,3.34082a6.35843,6.35843,0,0,0-1.98144-.89649,4.65923,4.65923,0,0,0-1.93457-.15039,1.44768,1.44768,0,0,0-.76856.31641.6939.6939,0,0,0-.24121.499.57326.57326,0,0,0,.32813.55176,3.37156,3.37156,0,0,0,1.001.27832q.66651.10546,1.69531.30957a11.13364,11.13364,0,0,1,1.79.49805,3.11837,3.11837,0,0,1,1.32813.9248,2.68394,2.68394,0,0,1,.49707,1.77734,4.376,4.376,0,0,1-1.32715,3.32032,6.94568,6.94568,0,0,1-3.67676,1.6084,12.38462,12.38462,0,0,1-2.66113.17382,10.593,10.593,0,0,1-2.32227-.36914,14.48191,14.48191,0,0,1-2.08007-.75879l1.78808-3.47851A11.56809,11.56809,0,0,0,333.69014,323.96575Z"/><path class="cls-3" d="M350.4958,322.30364a2.76467,2.76467,0,0,0,1.2041.71582,3.77763,3.77763,0,0,0,1.74024.06054,3.42984,3.42984,0,0,0,1.88769-.89257,2.34027,2.34027,0,0,0,.72657-1.72461,1.54,1.54,0,0,0-.43262-1.18164,2.81749,2.81749,0,0,0-1.16406-.64258,11.80526,11.80526,0,0,0-1.55469-.34766,15.70983,15.70983,0,0,1-1.72266-.4414,3.05338,3.05338,0,0,1-1.37011-.86329,2.42872,2.42872,0,0,1-.52637-1.70507,3.21284,3.21284,0,0,1,.56152-1.84571,4.14466,4.14466,0,0,1,1.43262-1.27539,5.91824,5.91824,0,0,1,1.88477-.65039,4.872,4.872,0,0,1,1.94921.02637,3.86247,3.86247,0,0,1,1.47071.67285,3.22244,3.22244,0,0,1,.93457,1.11035l-1.20606.90137a3.337,3.337,0,0,0-1.24121-1.19531,3.119,3.119,0,0,0-2.08594-.2461,3.22448,3.22448,0,0,0-1.60839.72559,1.86342,1.86342,0,0,0-.668,1.459,1.48593,1.48593,0,0,0,.40625,1.13282,2.44014,2.44014,0,0,0,1.10742.584c.46289.12109.95508.22656,1.47266.31934a13.68654,13.68654,0,0,1,1.90332.51953,3.44189,3.44189,0,0,1,1.41015.89843,2.28658,2.28658,0,0,1,.52832,1.63672,3.992,3.992,0,0,1-1.18457,2.8252,5.25388,5.25388,0,0,1-3.00781,1.50976,5.1349,5.1349,0,0,1-2.32422-.07128,3.47983,3.47983,0,0,1-1.57812-.92286,3.9866,3.9866,0,0,1-.86329-1.36621l1.17774-.84277A3.73317,3.73317,0,0,0,350.4958,322.30364Z"/><path class="cls-3" d="M361.51045,320.78215a2.34043,2.34043,0,0,0,2.27735.55176,4.31346,4.31346,0,0,0,1.94433-.83691,4.80917,4.80917,0,0,0,1.35156-1.59864,4.3449,4.3449,0,0,0,.50782-1.999l.07422-7.55859,1.44921-.24024-.12207,12.41895-1.44922.24023.0254-2.5918a5.79664,5.79664,0,0,1-1.61036,2.37012,5.00777,5.00777,0,0,1-2.51855,1.17383,3.27076,3.27076,0,0,1-3.05566-.74512,4.37949,4.37949,0,0,1-1.02637-3.21289l.0791-8.04492,1.45117-.24121-.07812,7.88281A3.521,3.521,0,0,0,361.51045,320.78215Z"/><path class="cls-3" d="M373.17744,320.82317l-1.45117.24121.12207-12.419,1.45117-.24121Zm3.58106-11.79492a2.28821,2.28821,0,0,0-.877-.002,2.62077,2.62077,0,0,0-1.52442.7666,3.58766,3.58766,0,0,0-.83691,1.51368,7.34708,7.34708,0,0,0-.26856,1.958l-.66992.11133a7.51515,7.51515,0,0,1,.499-2.71094,5.80669,5.80669,0,0,1,1.31446-2.03808,3.39912,3.39912,0,0,1,1.834-.97949,3.572,3.572,0,0,1,1.15528-.0166,2.19252,2.19252,0,0,1,.98535.416l-.82032,1.29492A3.12221,3.12221,0,0,0,376.7585,309.02825Z"/><path class="cls-3" d="M387.3835,297.43743l-.20606,21.05859-1.45117.24121.20606-21.05859Z"/><path class="cls-3" d="M390.58662,315.746a2.05519,2.05519,0,0,0,1.16211.73633,3.94365,3.94365,0,0,0,1.62793.03906,4.82007,4.82007,0,0,0,3.47657-2.49219,5.04734,5.04734,0,0,0,.58105-2.41406l.32422,1.13184a4.4252,4.4252,0,0,1-.749,2.52441,5.688,5.688,0,0,1-1.82715,1.7041,6.41642,6.41642,0,0,1-2.208.8252,4.76924,4.76924,0,0,1-2.08789-.09668,3.03618,3.03618,0,0,1-1.60449-1.041,3.21227,3.21227,0,0,1-.5918-2.085,4.19015,4.19015,0,0,1,1.32519-3.07812,6.44607,6.44607,0,0,1,3.53809-1.6377,7.12708,7.12708,0,0,1,2.15918-.07715,5.98471,5.98471,0,0,1,1.48633.38672,3.87906,3.87906,0,0,1,.83008.4541l-.00879.8916a5.87253,5.87253,0,0,0-2.0127-.62207,7.79951,7.79951,0,0,0-2.24121.0625,6.06369,6.06369,0,0,0-1.88574.60938,3.44543,3.44543,0,0,0-1.25,1.09863,2.85541,2.85541,0,0,0-.46192,1.61328A2.287,2.287,0,0,0,390.58662,315.746Zm-1.01367-8.834a14.954,14.954,0,0,1,1.8916-1.29883,8.22354,8.22354,0,0,1,2.86426-.97559,5.76375,5.76375,0,0,1,2.47754.04688,2.79267,2.79267,0,0,1,1.57715,1.05859,3.33324,3.33324,0,0,1,.53711,2.01367l-.08594,8.80078-1.45117.24121.084-8.6123a3.00369,3.00369,0,0,0-.15625-1.01074,1.94669,1.94669,0,0,0-.53515-.81446,2.10662,2.10662,0,0,0-1.01172-.47851,4.23085,4.23085,0,0,0-1.5586.01562,6.90511,6.90511,0,0,0-1.70312.499,7.7771,7.7771,0,0,0-1.30274.72949,9.82061,9.82061,0,0,0-.91113.7168Z"/><path class="cls-3" d="M407.51924,302.71477l4.168,9.415,4.36621-10.834,1.64551-.27343-6.042,14.13086-5.78321-12.16407Z"/><path class="cls-3" d="M418.70772,294.53313a1.25143,1.25143,0,0,1,.72754-.40332.889.889,0,0,1,.7373.16015.80182.80182,0,0,1,.28613.667,1.15833,1.15833,0,0,1-.2998.751,1.216,1.216,0,0,1-.74316.41993.86994.86994,0,0,1-.72168-.17676.78309.78309,0,0,1-.29981-.65137A1.1134,1.1134,0,0,1,418.70772,294.53313Zm1.38867,6.09082-.12207,12.41894-1.4502.24122.12207-12.41895Z"/><path class="cls-3" d="M424.67158,291.23723l-.20605,21.05859-1.45117.24122.20605-21.0586Z"/><path class="cls-3" d="M428.8542,290.54192l-.20605,21.05859-1.45117.24121.20605-21.05859Z"/><path class="cls-3" d="M433.14326,310.287a4.52123,4.52123,0,0,1-2.083-1.959,6.3896,6.3896,0,0,1-.73438-3.2334,7.834,7.834,0,0,1,.81445-3.47656,7.4096,7.4096,0,0,1,2.19825-2.64258,7.22027,7.22027,0,0,1,3.21484-1.35742,5.43913,5.43913,0,0,1,3.07422.27051,4.21375,4.21375,0,0,1,2.043,1.83008,5.99752,5.99752,0,0,1,.707,3.07617c-.001.1084-.00684.22558-.0166.35351a3.19753,3.19753,0,0,1-.04492.33008l-11.07227,1.84082.01172-1.21484,9.98437-1.66016-.62207.93945c.03809-.09667.08008-.2246.12989-.38574a1.66038,1.66038,0,0,0,.07324-.45605,3.94748,3.94748,0,0,0-.54981-2.17285,3.235,3.235,0,0,0-1.53125-1.3086,3.93738,3.93738,0,0,0-2.19824-.20019,5.46443,5.46443,0,0,0-2.47558,1.04492,5.60944,5.60944,0,0,0-1.64844,2.05273,6.58572,6.58572,0,0,0-.61231,2.80957,5.71759,5.71759,0,0,0,.54395,2.68653,3.32211,3.32211,0,0,0,1.60058,1.56738,4.13139,4.13139,0,0,0,2.4336.24219,6.01581,6.01581,0,0,0,2.58594-1.04981,7.51235,7.51235,0,0,0,1.98535-2.27148l1.165.53515a9.27076,9.27076,0,0,1-2.54785,2.8086,8.13992,8.13992,0,0,1-3.36817,1.32812A5.14763,5.14763,0,0,1,433.14326,310.287Z"/><path class="cls-3" d="M450.44112,298.31438a7.56537,7.56537,0,0,1,2.26562-2.60059,7.35646,7.35646,0,0,1,3.11816-1.2998,4.35042,4.35042,0,0,1,2.86426.373,4.46788,4.46788,0,0,1,1.86133,1.99511,6.97445,6.97445,0,0,1,.64941,3.207,8.61,8.61,0,0,1-.71484,3.4209,7.3849,7.3849,0,0,1-1.90723,2.63574,6.14373,6.14373,0,0,1-5.98242,1.06153,4.51008,4.51008,0,0,1-2.22265-1.86817,6.05355,6.05355,0,0,1-.80274-3.3164A7.67342,7.67342,0,0,1,450.44112,298.31438Zm1.23535,6.03418a3.42767,3.42767,0,0,0,1.76758,1.47168,4.722,4.722,0,0,0,2.46191.19726,4.82208,4.82208,0,0,0,2.252-1.04785,6.50762,6.50762,0,0,0,1.70606-2.11719,6.06067,6.06067,0,0,0,.667-2.752,4.76807,4.76807,0,0,0-.61523-2.53906,3.894,3.894,0,0,0-1.66993-1.55566,3.66056,3.66056,0,0,0-2.23828-.30176,5.9857,5.9857,0,0,0-2.47363,1.01758,5.73864,5.73864,0,0,0-1.80274,2.06543,6.25217,6.25217,0,0,0-.68261,2.88964A4.94328,4.94328,0,0,0,451.67647,304.34856Zm10.45117-19.33789-.207,21.05859-1.4502.24121.207-21.05859Z"/><path class="cls-3" d="M466.27705,304.77825a4.52118,4.52118,0,0,1-2.083-1.959,6.37694,6.37694,0,0,1-.7334-3.2334,7.80693,7.80693,0,0,1,.81347-3.47656,7.407,7.407,0,0,1,2.19727-2.64258,7.225,7.225,0,0,1,3.21484-1.35742,5.44776,5.44776,0,0,1,3.07617.27051,4.21739,4.21739,0,0,1,2.042,1.83105,5.99143,5.99143,0,0,1,.707,3.0752c-.002.1084-.00781.22656-.01758.35351a2.55473,2.55473,0,0,1-.04492.33008l-11.07129,1.84082.01172-1.21484,9.9834-1.66016-.6211.93946c.03809-.09668.08106-.22461.12891-.38575a1.70123,1.70123,0,0,0,.07422-.456,3.96414,3.96414,0,0,0-.54981-2.17285,3.23737,3.23737,0,0,0-1.53222-1.3086,3.93742,3.93742,0,0,0-2.19825-.20019,5.44791,5.44791,0,0,0-2.47363,1.04492,5.56559,5.56559,0,0,0-1.64844,2.05371,6.54945,6.54945,0,0,0-.61328,2.80859,5.71759,5.71759,0,0,0,.54395,2.68653,3.31607,3.31607,0,0,0,1.59961,1.56738,4.13547,4.13547,0,0,0,2.43457.24219,6.01586,6.01586,0,0,0,2.58594-1.04981,7.53875,7.53875,0,0,0,1.98535-2.27148l1.16406.53516a9.25833,9.25833,0,0,1-2.54785,2.80859,8.13454,8.13454,0,0,1-3.36817,1.32812A5.14439,5.14439,0,0,1,466.27705,304.77825Z"/><path class="cls-3" d="M483.57393,292.80559a7.55041,7.55041,0,0,1,2.26758-2.60059,7.34371,7.34371,0,0,1,3.11621-1.2998,4.35332,4.35332,0,0,1,2.86523.37305,4.47131,4.47131,0,0,1,1.86035,1.99511,6.97691,6.97691,0,0,1,.65039,3.207,8.60688,8.60688,0,0,1-.71582,3.4209,7.39232,7.39232,0,0,1-1.90527,2.63575,6.14724,6.14724,0,0,1-5.9834,1.06152,4.50176,4.50176,0,0,1-2.22265-1.86817,6.04527,6.04527,0,0,1-.80372-3.3164A7.68525,7.68525,0,0,1,483.57393,292.80559Zm1.23535,6.03418a3.44393,3.44393,0,0,0,1.76855,1.47266,4.72869,4.72869,0,0,0,2.46094.19628,4.82089,4.82089,0,0,0,2.25293-1.04785,6.51768,6.51768,0,0,0,1.70508-2.11718,6.06062,6.06062,0,0,0,.667-2.752,4.76809,4.76809,0,0,0-.61523-2.53906,3.897,3.897,0,0,0-1.66895-1.55566,3.66373,3.66373,0,0,0-2.23926-.30176,5.97461,5.97461,0,0,0-2.47363,1.01855,5.73664,5.73664,0,0,0-1.80273,2.06446,6.26421,6.26421,0,0,0-.68262,2.88964A4.94328,4.94328,0,0,0,484.80928,298.83977Zm10.45215-19.33789-.207,21.05859-1.45117.24121.207-21.05859Z"/><path class="cls-3" d="M499.40987,299.26946a4.52121,4.52121,0,0,1-2.083-1.959,6.37694,6.37694,0,0,1-.7334-3.2334,7.807,7.807,0,0,1,.81348-3.47656,7.41693,7.41693,0,0,1,2.19726-2.64258,7.225,7.225,0,0,1,3.21485-1.35742,5.44688,5.44688,0,0,1,3.07617.27051,4.21792,4.21792,0,0,1,2.042,1.83105,5.99154,5.99154,0,0,1,.708,3.0752c-.001.1084-.00782.22656-.01758.35352a2.71935,2.71935,0,0,1-.0459.33007l-11.07129,1.84082.01172-1.21484,9.98438-1.66016-.62207.93946c.03906-.09571.08105-.22461.1289-.38575a1.66285,1.66285,0,0,0,.07422-.45605,3.97211,3.97211,0,0,0-.54883-2.17285,3.24432,3.24432,0,0,0-1.5332-1.3086,3.93648,3.93648,0,0,0-2.19824-.20019,5.45261,5.45261,0,0,0-2.47364,1.04492,5.57527,5.57527,0,0,0-1.64843,2.05371,6.54931,6.54931,0,0,0-.61328,2.8086,5.71755,5.71755,0,0,0,.54394,2.68652,3.32013,3.32013,0,0,0,1.59961,1.56738,4.13639,4.13639,0,0,0,2.43457.24219,6.02469,6.02469,0,0,0,2.58691-1.04981,7.54978,7.54978,0,0,0,1.98438-2.27148l1.165.53516a9.27653,9.27653,0,0,1-2.54883,2.80957,8.12825,8.12825,0,0,1-3.36816,1.32715A5.14537,5.14537,0,0,1,499.40987,299.26946Z"/><path class="cls-3" d="M526.5417,295.32512l-1.45117.24121.07812-7.99121a3.66945,3.66945,0,0,0-.61718-2.39062,1.95292,1.95292,0,0,0-1.97071-.54883,3.70716,3.70716,0,0,0-1.7207.77148,4.40978,4.40978,0,0,0-1.22558,1.55176,4.73575,4.73575,0,0,0-.46485,2.0459l-.07422,7.55859-1.45117.24121.07813-7.99121a3.66951,3.66951,0,0,0-.61719-2.39062,1.9536,1.9536,0,0,0-1.9707-.54883,3.70715,3.70715,0,0,0-1.72071.77148,4.404,4.404,0,0,0-1.22558,1.55078,4.72563,4.72563,0,0,0-.46582,2.0459l-.07422,7.5586-1.4502.24121L510.32,285.623l1.4502-.24121-.02442,2.51074a5.65142,5.65142,0,0,1,1.498-2.29687,4.32554,4.32554,0,0,1,2.2373-1.10059,2.98953,2.98953,0,0,1,2.28028.38965,3.03126,3.03126,0,0,1,1.17871,1.89258,6.04254,6.04254,0,0,1,1.63867-2.374,4.71144,4.71144,0,0,1,2.34961-1.14649,3.35529,3.35529,0,0,1,2.03125.20117,2.60545,2.60545,0,0,1,1.25293,1.35547,5.70012,5.70012,0,0,1,.40918,2.3584Z"/><path class="cls-3" d="M529.95088,292.57512a2.06087,2.06087,0,0,0,1.16309.73633,3.93837,3.93837,0,0,0,1.62695.03906,4.82418,4.82418,0,0,0,3.47754-2.49219,5.0584,5.0584,0,0,0,.58105-2.41406l.32325,1.13184a4.42513,4.42513,0,0,1-.749,2.52441,5.68463,5.68463,0,0,1-1.82617,1.7041,6.42361,6.42361,0,0,1-2.208.8252,4.7691,4.7691,0,0,1-2.08789-.09668,3.03238,3.03238,0,0,1-1.60449-1.041,3.21243,3.21243,0,0,1-.59277-2.085,4.19109,4.19109,0,0,1,1.32617-3.07812,6.44288,6.44288,0,0,1,3.53711-1.6377,7.12781,7.12781,0,0,1,2.15918-.07715,5.96153,5.96153,0,0,1,1.48633.38672,3.80527,3.80527,0,0,1,.83007.4541l-.00878.89161a5.86717,5.86717,0,0,0-2.01172-.62207,7.80555,7.80555,0,0,0-2.24219.0625,6.07188,6.07188,0,0,0-1.88574.60937,3.44535,3.44535,0,0,0-1.25,1.09863,2.86259,2.86259,0,0,0-.46094,1.61328A2.29253,2.29253,0,0,0,529.95088,292.57512Zm-1.01269-8.834a14.86427,14.86427,0,0,1,1.89062-1.29883,8.23076,8.23076,0,0,1,2.86426-.97559,5.76391,5.76391,0,0,1,2.47754.04688,2.79845,2.79845,0,0,1,1.57812,1.05859,3.33315,3.33315,0,0,1,.53614,2.01367l-.08594,8.80078-1.4502.24122.084-8.61231a2.9799,2.9799,0,0,0-.15723-1.01074,1.94443,1.94443,0,0,0-.53418-.81445,2.11533,2.11533,0,0,0-1.01172-.47852,4.23623,4.23623,0,0,0-1.55957.01562,6.90554,6.90554,0,0,0-1.70312.499,7.76543,7.76543,0,0,0-1.30176.72949,9.846,9.846,0,0,0-.91211.7168Z"/><path class="cls-3" d="M541.00459,274.20012a1.25837,1.25837,0,0,1,.72754-.4043.89514.89514,0,0,1,.73731.16016.80224.80224,0,0,1,.28613.668,1.1489,1.1489,0,0,1-.29981.75,1.20411,1.20411,0,0,1-.74316.41992.86616.86616,0,0,1-.72168-.17578.78576.78576,0,0,1-.2998-.65137A1.11783,1.11783,0,0,1,541.00459,274.20012Zm1.38867,6.09082-.12207,12.41895-1.45019.24121.12207-12.41895Z"/><path class="cls-3" d="M552.91573,280.48235a2.4043,2.4043,0,0,0-2.27833-.51172,4.40842,4.40842,0,0,0-1.94335.82226,4.68224,4.68224,0,0,0-1.35254,1.58594,4.3973,4.3973,0,0,0-.50586,2.02539l-.07422,7.5586-1.45117.24121.12207-12.41895,1.45117-.24121-.02539,2.5918a5.758,5.758,0,0,1,1.623-2.37207,5.02861,5.02861,0,0,1,2.50391-1.17188,3.31626,3.31626,0,0,1,3.05567.71875,4.19843,4.19843,0,0,1,1.02734,3.13184l-.08008,8.15332-1.44922.24121.07813-7.99121A3.32177,3.32177,0,0,0,552.91573,280.48235Z"/><path class="cls-3" d="M73.12422,131.89739v47.73047l24.16553-4.27832v12.46972l-38.7002,6.85156V134.47063Z"/><path class="cls-3" d="M108.42744,184.17082a14.374,14.374,0,0,1-7.78369-5.80371,18.51308,18.51308,0,0,1-2.75146-10.43506,24.45688,24.45688,0,0,1,2.666-11.47949,22.9134,22.9134,0,0,1,7.69678-8.50049,30.645,30.645,0,0,1,11.91113-4.603q6.87964-1.2173,11.60987.31006a12.83825,12.83825,0,0,1,7.22412,5.5581,19.50151,19.50151,0,0,1,2.49414,10.39453v1.84864a5.93108,5.93108,0,0,1-.17236,1.53515l-36.12012,6.39453v-7.22363l24.42431-4.32422-3.09619,4.5044a6.96646,6.96646,0,0,0,.73145-1.63428,5.48706,5.48706,0,0,0,.30078-1.55811,8.86932,8.86932,0,0,0-.94629-4.30517,5.387,5.387,0,0,0-2.666-2.45215,7.07926,7.07926,0,0,0-4.0415-.31641,10.34857,10.34857,0,0,0-4.90234,2.15821,9.88522,9.88522,0,0,0-2.9668,4.438,21.82976,21.82976,0,0,0-1.07519,6.76953,15.25555,15.25555,0,0,0,1.03222,6.00977,6.26,6.26,0,0,0,3.0957,3.36475,8.36767,8.36767,0,0,0,5.07422.43457,14.49172,14.49172,0,0,0,5.89112-2.333,12.42665,12.42665,0,0,0,3.91308-4.5625l11.60987.78223a26.95005,26.95005,0,0,1-8.38477,10.25586,30.4744,30.4744,0,0,1-12.85742,5.20117A24.49319,24.49319,0,0,1,108.42744,184.17082Z"/><path class="cls-3" d="M154.60908,167.22209a17.33338,17.33338,0,0,0,4.34327,1.21,11.30586,11.30586,0,0,0,3.26806-.0205,5.0409,5.0409,0,0,0,2.92383-1.37793,3.43265,3.43265,0,0,0,.9458-2.40235,2.76372,2.76372,0,0,0-.77392-2.05664,6.207,6.207,0,0,0-2.62305-1.29834,33.59679,33.59679,0,0,0-5.03076-.915,30.96026,30.96026,0,0,1-5.37549-1.49951,8.69071,8.69071,0,0,1-5.80469-8.9917,11.17,11.17,0,0,1,1.93457-6.44775,15.41806,15.41806,0,0,1,5.2461-4.71338,23.68731,23.68731,0,0,1,7.61132-2.63721,24.90181,24.90181,0,0,1,6.40723-.36132,25.52461,25.52461,0,0,1,10.53467,3.20947l-4.644,9.251a17.67482,17.67482,0,0,0-5.67579-2.82226,12.7272,12.7272,0,0,0-5.84814-.46973,5.22321,5.22321,0,0,0-2.709,1.167,2.62624,2.62624,0,0,0-.90333,1.96582,2.166,2.166,0,0,0,1.0752,1.96,9.04075,9.04075,0,0,0,3.0957,1.04248q2.02.375,4.94532.97461a32.74027,32.74027,0,0,1,5.71923,1.56738,9.79754,9.79754,0,0,1,4.21387,2.95117,8.76865,8.76865,0,0,1,1.59082,5.65283,13.91317,13.91317,0,0,1-3.91308,10.28174q-3.91334,3.917-10.96485,5.166a29.82066,29.82066,0,0,1-7.95508.41894,26.91509,26.91509,0,0,1-6.751-1.4707,33.69164,33.69164,0,0,1-5.76221-2.72022l5.41846-9.56006A32.0871,32.0871,0,0,0,154.60908,167.22209Z"/><path class="cls-3" d="M222.84834,105.39006v60.2002l-14.53418,2.57324V107.9633Zm-5.418.95948,11.78174-2.08594q7.65381-1.355,12.85694.08886a13.48215,13.48215,0,0,1,7.86914,5.35792,17.6056,17.6056,0,0,1,2.6665,10.10595,22.48772,22.48772,0,0,1-2.6665,10.92139,22.21921,22.21921,0,0,1-7.86914,8.187,35.46884,35.46884,0,0,1-12.85694,4.64063l-11.78174,2.08593V133.69817l11.78174-2.08594a12.80979,12.80979,0,0,0,6.87988-3.19678,8.16183,8.16183,0,0,0,2.49415-6.11718q0-3.7837-2.49415-5.32032-2.49536-1.53515-6.87988-.76025l-11.78174,2.08594Z"/><path class="cls-3" d="M269.20186,157.38371l-12.814,2.269V120.09319l12.814-2.26905Zm9.24512-29.415a5.83769,5.83769,0,0,0-2.88135-.09131,6.754,6.754,0,0,0-3.35352,1.626,8.18858,8.18858,0,0,0-2.23633,3.40577,14.40673,14.40673,0,0,0-.77392,4.95214l-3.09571-4.00927a20.70922,20.70922,0,0,1,1.84913-8.75537,20.06043,20.06043,0,0,1,4.85888-6.7085,12.824,12.824,0,0,1,6.27783-3.26123,9.6661,9.6661,0,0,1,4.12842.12842,5.28409,5.28409,0,0,1,3.00977,1.87549l-5.58985,12.08447A7.03326,7.03326,0,0,0,278.447,127.96868Z"/><path class="cls-3" d="M288.552,123.25627a25.63321,25.63321,0,0,1,8.084-8.65527,29.66728,29.66728,0,0,1,11.61084-4.63525,23.6133,23.6133,0,0,1,11.56641.53222,15.669,15.669,0,0,1,8.084,5.79248,17.33458,17.33458,0,0,1,2.96777,10.39649,22.41687,22.41687,0,0,1-2.96777,11.36133,26.12949,26.12949,0,0,1-8.084,8.65576,29.384,29.384,0,0,1-11.56641,4.62793,23.888,23.888,0,0,1-11.61084-.52491,15.38163,15.38163,0,0,1-8.084-5.793,17.40239,17.40239,0,0,1-2.92383-10.31836A22.79779,22.79779,0,0,1,288.552,123.25627Zm11.6958,14.14014a7.19276,7.19276,0,0,0,3.35449,2.80322,8.28483,8.28483,0,0,0,4.64453.38233,10.69778,10.69778,0,0,0,4.60059-2.01905,11.5017,11.5017,0,0,0,3.35351-3.99121,11.8324,11.8324,0,0,0,1.24707-5.50976,9.57516,9.57516,0,0,0-1.24707-5.11133,6.81889,6.81889,0,0,0-3.35351-2.8457,8.35318,8.35318,0,0,0-4.60059-.38916,10.62039,10.62039,0,0,0-4.64453,2.02588,11.95346,11.95346,0,0,0-3.35449,4.03369,11.81783,11.81783,0,0,0-1.28907,5.56006A9.066,9.066,0,0,0,300.24776,137.39641Z"/><path class="cls-3" d="M336.58272,114.40862a24.332,24.332,0,0,1,7.00879-8.20655,21.60777,21.60777,0,0,1,9.11621-4.022,14.3176,14.3176,0,0,1,8.81445.9336,13.31563,13.31563,0,0,1,6.06348,6.02148A22.56616,22.56616,0,0,1,369.822,119.79a27.84228,27.84228,0,0,1-2.23633,11.40381,22.08862,22.08862,0,0,1-6.06348,8.21192,18.685,18.685,0,0,1-8.81445,4.05469,16.83591,16.83591,0,0,1-9.11621-.79444,14.44777,14.44777,0,0,1-7.00879-5.76806q-2.70851-4.11989-2.709-10.74366A24.43615,24.43615,0,0,1,336.58272,114.40862Zm12.25488,14.47119a7.1355,7.1355,0,0,0,3.44043,2.91748,8.47135,8.47135,0,0,0,4.72949.40967,10.20579,10.20579,0,0,0,4.34375-1.97315,12.52265,12.52265,0,0,0,3.48242-4.1001,11.71512,11.71512,0,0,0,1.376-5.70458,9.1365,9.1365,0,0,0-1.376-5.21729,7.48024,7.48024,0,0,0-3.48242-2.86572,7.88065,7.88065,0,0,0-4.34375-.43506,10.87517,10.87517,0,0,0-4.72949,2.08447,12.00482,12.00482,0,0,0-4.73047,9.73779A9.50091,9.50091,0,0,0,348.8376,128.87981ZM379.196,70.83049v67.08008l-12.98633,2.29883V73.12932Z"/><path class="cls-3" d="M401.64131,123.83147q1.28907,1.70654,4.47168,1.14355a8.45118,8.45118,0,0,0,3.65527-1.50732,7.78607,7.78607,0,0,0,2.36426-2.9126,9.356,9.356,0,0,0,.86035-4.1084V92.3676l12.98633-2.29931v39.55957l-12.98633,2.29931v-5.93359a18.147,18.147,0,0,1-4.72949,5.86767,15.75872,15.75872,0,0,1-7.31055,3.14356q-7.39746,1.30958-10.793-2.08838-3.39844-3.397-3.39649-10.44922v-25.456l13.58789-2.40528V118.685A8.4849,8.4849,0,0,0,401.64131,123.83147Z"/><path class="cls-3" d="M435.18037,68.5302a9.52692,9.52692,0,0,1,5.332-2.8794,6.88834,6.88834,0,0,1,5.375.98389,5.30617,5.30617,0,0,1,2.19336,4.64209,7.79584,7.79584,0,0,1-2.19336,5.4624,9.36592,9.36592,0,0,1-5.375,2.93018,6.81144,6.81144,0,0,1-5.332-1.03467,5.3585,5.3585,0,0,1-2.23535-4.67822A7.59328,7.59328,0,0,1,435.18037,68.5302Zm11.60938,17.854v39.55957l-12.55567,2.22266V88.60686Z"/><path class="cls-3" d="M476.80342,81.07024v10.75l-26.48828,4.68994v-10.75ZM469.75166,68.558v53.32031l-12.4707,2.208V70.766Z"/><path class="cls-3" d="M487.42354,108.30071a17.371,17.371,0,0,0,4.34375,1.20947,11.30336,11.30336,0,0,0,3.26758-.02,5.04831,5.04831,0,0,0,2.9248-1.37793,3.43509,3.43509,0,0,0,.94629-2.40283,2.76669,2.76669,0,0,0-.77441-2.05664,6.207,6.207,0,0,0-2.623-1.29785,33.6265,33.6265,0,0,0-5.03125-.915,30.926,30.926,0,0,1-5.375-1.5,8.68965,8.68965,0,0,1-5.80469-8.9917,11.1773,11.1773,0,0,1,1.93457-6.44776,15.42093,15.42093,0,0,1,5.2461-4.71289,23.6794,23.6794,0,0,1,7.61132-2.63769,24.893,24.893,0,0,1,6.40625-.36084,25.53054,25.53054,0,0,1,10.53614,3.209l-4.64551,9.251a17.65461,17.65461,0,0,0-5.67481-2.82227,12.72139,12.72139,0,0,0-5.84863-.46923,5.21713,5.21713,0,0,0-2.709,1.167,2.62617,2.62617,0,0,0-.90332,1.96533,2.1669,2.1669,0,0,0,1.07519,1.96,9.0403,9.0403,0,0,0,3.09668,1.04248q2.02.375,4.94434.97461a32.69933,32.69933,0,0,1,5.71875,1.56738,9.80081,9.80081,0,0,1,4.21484,2.95118,8.77588,8.77588,0,0,1,1.59082,5.65332A13.91205,13.91205,0,0,1,507.97823,113.52q-3.91407,3.917-10.96485,5.166a29.78047,29.78047,0,0,1-7.95508.419,26.91553,26.91553,0,0,1-6.751-1.47071,33.65242,33.65242,0,0,1-5.76172-2.72021l5.417-9.55957A32.21252,32.21252,0,0,0,487.42354,108.30071Z"/><path class="cls-3" d="M65.343,265.831a5.07031,5.07031,0,0,0,2.62012,1.94434,7.18237,7.18237,0,0,0,3.62305.23144,11.34675,11.34675,0,0,0,3.15136-1.04883,13.57425,13.57425,0,0,0,2.76758-1.85156,9.83228,9.83228,0,0,0,2.0918-2.51465v8.52539a13.95444,13.95444,0,0,1-3.53418,2.39258,19.51152,19.51152,0,0,1-5.1836,1.582,16.91643,16.91643,0,0,1-8.04-.32226,10.64025,10.64025,0,0,1-5.59571-3.88477,11.44681,11.44681,0,0,1-2.03222-6.94922,14.91844,14.91844,0,0,1,2.03222-7.69531,17.75259,17.75259,0,0,1,5.59571-5.83008,20.90776,20.90776,0,0,1,8.04-3.1582,17.04641,17.04641,0,0,1,5.1836-.24805,10.89873,10.89873,0,0,1,3.53418,1.0293v8.584a5.63028,5.63028,0,0,0-2.15039-1.7666,9.26374,9.26374,0,0,0-2.85645-.83008,10.0013,10.0013,0,0,0-3.0039.06641,8.64764,8.64764,0,0,0-3.62305,1.56641,8.90324,8.90324,0,0,0-2.62012,2.957,7.625,7.625,0,0,0-.94238,3.7041A6.07054,6.07054,0,0,0,65.343,265.831Z"/><path class="cls-3" d="M93.20235,270.57317l-8.95215,1.5791V226.912l8.95215-1.57911Zm7.77539-21.26563q-.88478-1.11913-3.0625-.73535a5.68858,5.68858,0,0,0-2.47461,1.0459,5.514,5.514,0,0,0-1.64844,1.97168,6.046,6.046,0,0,0-.58984,2.74316l-1.53125.26953a16.5306,16.5306,0,0,1,1.05957-5.957,11.84067,11.84067,0,0,1,3.21093-4.68457,10.93169,10.93169,0,0,1,5.50782-2.50879,10.109,10.109,0,0,1,5.38867.21,5.32182,5.32182,0,0,1,2.97461,2.89648,13.283,13.283,0,0,1,.94238,5.40234v17.51563l-8.89453,1.56933V252.80559A5.63417,5.63417,0,0,0,100.97774,249.30754Z"/><path class="cls-3" d="M123.41817,258.65911a2.599,2.599,0,0,0,1.41406.85253,4.6131,4.6131,0,0,0,1.94336.03516,7.31394,7.31394,0,0,0,2.82715-1.13769,6.8067,6.8067,0,0,0,2.12011-2.28809,6.40535,6.40535,0,0,0,.8252-3.27734l.94238,3.31445a7.77125,7.77125,0,0,1-1.41406,4.56933A11.24912,11.24912,0,0,1,128.425,264.04a14.67637,14.67637,0,0,1-4.83105,1.752,11.27681,11.27681,0,0,1-4.79981-.11035,6.37926,6.37926,0,0,1-3.53418-2.24805,6.90386,6.90386,0,0,1-1.32519-4.40527,8.85667,8.85667,0,0,1,2.76855-6.55079,14.44894,14.44894,0,0,1,7.833-3.61425,19.30258,19.30258,0,0,1,4.44727-.32032,14.03776,14.03776,0,0,1,3.38769.5625,5.85393,5.85393,0,0,1,2.12012,1.0752v3.88672a8.735,8.735,0,0,0-3.26856-1.01856,13.34482,13.34482,0,0,0-3.917.13965,8.39489,8.39489,0,0,0-2.5332.7959,3.72,3.72,0,0,0-1.41406,1.26367,3.19464,3.19464,0,0,0-.47071,1.73633A2.51884,2.51884,0,0,0,123.41817,258.65911Zm-7.48145-16.457a48.61585,48.61585,0,0,1,5.53809-3.06445,27.07842,27.07842,0,0,1,7.06738-2.23242,18.256,18.256,0,0,1,6.4209-.11816,8.34519,8.34519,0,0,1,4.47656,2.13867,5.91014,5.91014,0,0,1,1.64942,4.40722v18.792l-8.541,1.50683V246.81145a3.79364,3.79364,0,0,0-.32422-1.65332,2.60518,2.60518,0,0,0-.97266-1.07617,3.40175,3.40175,0,0,0-1.61914-.46778,9.47389,9.47389,0,0,0-2.209.15821,17.35822,17.35822,0,0,0-3.56348,1.03418,22.5375,22.5375,0,0,0-3.0332,1.49218,21.91991,21.91991,0,0,0-1.88477,1.23145Z"/><path class="cls-3" d="M162.675,238.42375q-.9126-1.11474-3.0332-.74121a5.91634,5.91634,0,0,0-2.47461,1.0166,5.22089,5.22089,0,0,0-1.64844,1.97266,6.24116,6.24116,0,0,0-.58886,2.77149v16.24023l-8.95313,1.5791V234.58293l8.95313-1.5791v4.002a11.14192,11.14192,0,0,1,3.21-3.98829,11.25776,11.25776,0,0,1,5.03613-2.10742q5.06542-.89355,7.3623,1.36914,2.29835,2.26466,2.29786,7.07715v17.168l-9.24805,1.63184V241.91594A5.4661,5.4661,0,0,0,162.675,238.42375Z"/><path class="cls-3" d="M178.343,234.3261a15.56142,15.56142,0,0,1,4.80078-5.37207,15.774,15.774,0,0,1,6.24317-2.60938,10.4156,10.4156,0,0,1,6.03711.53028,8.64225,8.64225,0,0,1,4.15332,3.8789,14.48406,14.48406,0,0,1,1.53027,7.09473,17.96477,17.96477,0,0,1-1.53027,7.6084A14.35905,14.35905,0,0,1,195.424,250.829a13.37206,13.37206,0,0,1-6.03711,2.65918,12.26233,12.26233,0,0,1-6.24317-.43555,9.48244,9.48244,0,0,1-4.80078-3.70508,12.37512,12.37512,0,0,1-1.85547-7.15527A15.95055,15.95055,0,0,1,178.343,234.3261Zm7.333,21.84765a4.74018,4.74018,0,0,0,.97168,2.55371,3.80325,3.80325,0,0,0,2.14941,1.27442,7.70026,7.70026,0,0,0,3.06348.01074,8.15765,8.15765,0,0,0,3.417-1.44433,7.95459,7.95459,0,0,0,2.44336-2.92481,9.3429,9.3429,0,0,0,.91406-4.25V225.29387l8.54-1.50683v26.0996a17.16221,17.16221,0,0,1-2.03222,8.65235,15.56689,15.56689,0,0,1-5.38965,5.62012,21.24837,21.24837,0,0,1-7.53906,2.80957,18.79036,18.79036,0,0,1-8.2754-.04883,8.53711,8.53711,0,0,1-4.918-3.33692,12.00332,12.00332,0,0,1-1.94434-5.89257Zm1.06055-12.28027a4.47832,4.47832,0,0,0,2.35546,1.81738,6.50473,6.50473,0,0,0,3.23926.18164,7.61706,7.61706,0,0,0,2.97461-1.249,7.87558,7.87558,0,0,0,2.38574-2.5957,7.33256,7.33256,0,0,0,.94336-3.7627,6.095,6.095,0,0,0-.56054-2.74316,4.738,4.738,0,0,0-1.47168-1.76953,5.08277,5.08277,0,0,0-2.03223-.86035,6.27434,6.27434,0,0,0-2.23926-.01075,8.14586,8.14586,0,0,0-3.23926,1.32617,7.43273,7.43273,0,0,0-3.23925,6.3125A5.90838,5.90838,0,0,0,186.73653,243.89348Z"/><path class="cls-3" d="M217.86446,247.45012a9.80623,9.80623,0,0,1-5.33008-3.90234,12.32369,12.32369,0,0,1-1.88477-7.03418,16.29509,16.29509,0,0,1,1.82617-7.74512,15.59294,15.59294,0,0,1,5.27051-5.74512,21.21642,21.21642,0,0,1,8.1582-3.12011,16.83707,16.83707,0,0,1,7.95215.1914,8.75592,8.75592,0,0,1,4.94727,3.73828,12.97318,12.97318,0,0,1,1.708,7.00684v1.24707a3.94619,3.94619,0,0,1-.11719,1.03516l-24.73926,4.36425v-4.87207L232.384,229.663l-2.1211,3.042a4.623,4.623,0,0,0,.501-1.10254,3.65714,3.65714,0,0,0,.20605-1.05078,5.89157,5.89157,0,0,0-.64843-2.90234,3.65434,3.65434,0,0,0-1.8252-1.65039,4.91276,4.91276,0,0,0-2.76855-.207,7.15461,7.15461,0,0,0-3.35742,1.46191,6.67656,6.67656,0,0,0-2.03223,2.99805,14.52551,14.52551,0,0,0-.73633,4.56641,10.12933,10.12933,0,0,0,.707,4.05175,4.233,4.233,0,0,0,2.12012,2.26465,5.81495,5.81495,0,0,0,3.47558.28613,10.03352,10.03352,0,0,0,4.03418-1.582,8.43335,8.43335,0,0,0,2.68067-3.082l7.95117.51074a18.29622,18.29622,0,0,1-5.74219,6.92969,21.10766,21.10766,0,0,1-8.80664,3.52442A17.02514,17.02514,0,0,1,217.86446,247.45012Z"/><path class="cls-3" d="M260.9211,221.09172q-.9126-1.11474-3.03321-.74121a5.907,5.907,0,0,0-2.47363,1.0166,5.21063,5.21063,0,0,0-1.64844,1.97266,6.22809,6.22809,0,0,0-.58984,2.77148v16.24024l-8.95215,1.5791V217.2509l8.95215-1.5791v4.002a10.75737,10.75737,0,0,1,8.24707-6.0957q5.064-.89355,7.36133,1.36914,2.29833,2.26466,2.29785,7.07715v17.168l-9.248,1.63183V224.58391A5.46617,5.46617,0,0,0,260.9211,221.09172Z"/><path class="cls-3" d="M291.28438,208.94914v7.25l-18.1416,3.2002v-7.25Zm-4.8291-8.42871v35.96l-8.541,1.50684v-35.96Z"/><path class="cls-3" d="M309.45479,211.4843a16.53143,16.53143,0,0,1,4.80078-5.54394,14.966,14.966,0,0,1,6.24316-2.72559,9.94212,9.94212,0,0,1,6.03809.61719,9.03645,9.03645,0,0,1,4.15234,4.05175,15.01279,15.01279,0,0,1,1.53125,7.1836,18.55134,18.55134,0,0,1-1.53125,7.69336,14.98729,14.98729,0,0,1-4.15234,5.54785,12.9359,12.9359,0,0,1-6.03809,2.74609,11.67929,11.67929,0,0,1-6.24316-.52246,9.82993,9.82993,0,0,1-4.80078-3.88086,12.79414,12.79414,0,0,1-1.85547-7.24023A16.29843,16.29843,0,0,1,309.45479,211.4843Zm8.39355,9.74316a4.85554,4.85554,0,0,0,2.35645,1.96192,5.88055,5.88055,0,0,0,3.23926.26953,7.04739,7.04739,0,0,0,2.9746-1.33594,8.51152,8.51152,0,0,0,2.38575-2.77051,7.8232,7.8232,0,0,0,.94238-3.84863,6.09276,6.09276,0,0,0-.94238-3.51758,5.10382,5.10382,0,0,0-2.38575-1.92773,5.47954,5.47954,0,0,0-2.9746-.28711,7.52642,7.52642,0,0,0-3.23926,1.41211,8.13292,8.13292,0,0,0-2.35645,2.79394,8.038,8.038,0,0,0-.88379,3.78125A6.3113,6.3113,0,0,0,317.84834,221.22746Zm20.792-39.19287v45.23975l-8.89355,1.56934V183.60344Z"/><path class="cls-3" d="M349.38936,224.247a9.8063,9.8063,0,0,1-5.33008-3.90235,12.31312,12.31312,0,0,1-1.88574-7.0332,16.29953,16.29953,0,0,1,1.82715-7.74609,15.582,15.582,0,0,1,5.2705-5.74415,21.21744,21.21744,0,0,1,8.15821-3.12109,16.84425,16.84425,0,0,1,7.95117.19238,8.75068,8.75068,0,0,1,4.94824,3.73829,12.96725,12.96725,0,0,1,1.708,7.00585v1.24707a3.94572,3.94572,0,0,1-.11719,1.03516l-24.73926,4.36426v-4.87207l16.72852-2.9502-2.12109,3.042a4.6885,4.6885,0,0,0,.501-1.10352,3.65721,3.65721,0,0,0,.20606-1.05078,5.90225,5.90225,0,0,0-.64844-2.90235,3.64807,3.64807,0,0,0-1.8252-1.64941,4.91239,4.91239,0,0,0-2.76855-.208,7.15462,7.15462,0,0,0-3.35742,1.46192,6.68185,6.68185,0,0,0-2.03223,2.998,14.52748,14.52748,0,0,0-.73633,4.56739,10.12432,10.12432,0,0,0,.707,4.05078,4.235,4.235,0,0,0,2.12012,2.26562,5.8155,5.8155,0,0,0,3.47559.28516,10.03378,10.03378,0,0,0,4.03418-1.582,8.43461,8.43461,0,0,0,2.68066-3.082l7.95117.51172a18.29314,18.29314,0,0,1-5.74218,6.92871,21.1087,21.1087,0,0,1-8.80665,3.52539A17.03641,17.03641,0,0,1,349.38936,224.247Z"/><path class="cls-3" d="M419.86494,172.34612l11.66211-2.05762-21.73437,46.98584L388.1169,177.9467l11.60254-2.04687,10.07324,22.46631Z"/><path class="cls-3" d="M434.17647,170.3134a6.57582,6.57582,0,0,1,3.65234-1.94873,4.77533,4.77533,0,0,1,3.68067.65528,3.55048,3.55048,0,0,1,1.50292,3.12841,5.22422,5.22422,0,0,1-1.50292,3.687,6.4588,6.4588,0,0,1-3.68067,1.98339,4.72051,4.72051,0,0,1-3.65234-.68994,3.58676,3.58676,0,0,1-1.53125-3.15185A5.09173,5.09173,0,0,1,434.17647,170.3134Zm7.95215,12.0249v26.6792l-8.59961,1.51758V183.85539Z"/><path class="cls-3" d="M453.28975,205.91789a9.8051,9.8051,0,0,1-5.33106-3.90234,12.32046,12.32046,0,0,1-1.88476-7.0332,16.31052,16.31052,0,0,1,1.82617-7.7461,15.59431,15.59431,0,0,1,5.27148-5.74462,21.22467,21.22467,0,0,1,8.15821-3.12061,16.83916,16.83916,0,0,1,7.95117.19189,8.75493,8.75493,0,0,1,4.94824,3.73829,12.97016,12.97016,0,0,1,1.708,7.00634v1.24707a3.98775,3.98775,0,0,1-.11719,1.03516L451.08076,195.954V191.082l16.72754-2.95069-2.12011,3.04151a4.66165,4.66165,0,0,0,.501-1.10254,3.65734,3.65734,0,0,0,.20606-1.05078,5.90222,5.90222,0,0,0-.64844-2.90235,3.65516,3.65516,0,0,0-1.8252-1.6499,4.922,4.922,0,0,0-2.76855-.20752,7.15084,7.15084,0,0,0-3.35742,1.4624,6.675,6.675,0,0,0-2.03223,2.99756,14.52585,14.52585,0,0,0-.73633,4.56641,10.14736,10.14736,0,0,0,.70606,4.05176,4.24358,4.24358,0,0,0,2.12109,2.26562,5.82314,5.82314,0,0,0,3.47559.28516,10.03393,10.03393,0,0,0,4.03418-1.582,8.45146,8.45146,0,0,0,2.68066-3.082l7.95117.51074a18.30515,18.30515,0,0,1-5.74218,6.92968,21.11305,21.11305,0,0,1-8.80664,3.52442A17.025,17.025,0,0,1,453.28975,205.91789Z"/><path class="cls-3" d="M507.68428,156.85344l-1.88379,27.53369-7.1875,1.26758-1.94336-26.85791Zm-9.4541,35.0752a6.93636,6.93636,0,0,1,3.97558-2.09375,5.07862,5.07862,0,0,1,3.97657.69043,3.82151,3.82151,0,0,1,1.56152,3.32129,5.49213,5.49213,0,0,1-1.56152,3.87109,6.92912,6.92912,0,0,1-3.97657,2.09277,5.073,5.073,0,0,1-3.97558-.68945,3.81789,3.81789,0,0,1-1.56055-3.32031A5.49509,5.49509,0,0,1,498.23018,191.92864Z"/></g></g></svg>